# Blender v2.90.1 OBJ File: ''
# www.blender.org
o bullet_Cube.014
v -0.001795 0.001765 0.325832
v 0.002004 -0.001259 0.325832
v 0.002004 0.001765 0.325832
v 0.033385 0.032415 0.109245
v 0.033385 0.015155 -0.109245
v 0.033385 0.032415 -0.109245
v -0.001795 -0.001259 0.325832
v 0.002004 -0.003086 0.325832
v 0.002004 -0.001259 0.325832
v 0.018487 -0.032415 0.109245
v 0.033385 -0.032415 0.109245
v 0.018487 -0.032415 0.109245
v -0.003087 0.001765 0.325832
v -0.001795 0.001765 0.325832
v 0.002004 0.001765 0.325832
v 0.003524 -0.001259 0.325832
v 0.003524 0.001765 0.325832
v -0.018779 0.032415 0.109245
v -0.031445 0.032415 0.109245
v -0.018779 0.032415 0.109245
v -0.018779 0.032415 0.109245
v -0.031445 0.032415 0.109245
v 0.033385 0.015155 0.109245
v 0.033385 0.032415 0.109245
v 0.033385 0.015155 0.109245
v -0.031445 -0.014502 0.109245
v -0.031445 -0.032415 0.109245
v -0.031445 -0.014502 0.109245
v -0.031445 -0.014502 0.109245
v -0.031445 -0.032415 0.109245
v -0.031445 -0.014502 0.109245
v 0.033385 0.032415 0.109245
v 0.033385 0.015155 0.109245
v 0.033385 -0.032415 0.109245
v 0.018487 -0.032415 0.109245
v -0.031445 -0.032415 0.109245
v -0.018779 -0.032415 0.109245
v -0.018779 -0.032415 0.109245
v -0.018779 0.015155 0.109245
v 0.018487 0.015155 0.109245
v -0.018779 0.015155 0.109245
v 0.018487 0.032415 0.109245
v 0.018487 0.032415 0.109245
v -0.018779 -0.032415 -0.109245
v 0.018487 -0.032415 -0.109245
v -0.001795 0.003525 0.325832
v 0.002004 0.003525 0.325832
v -0.018779 -0.032415 0.109245
v 0.014553 -0.011342 0.206158
v 0.014553 -0.025415 0.144394
v 0.014553 -0.011342 0.144394
v -0.031445 -0.032415 -0.109245
v -0.031445 -0.032415 0.109245
v 0.018487 0.032415 -0.109245
v -0.018779 0.032415 -0.109245
v 0.018487 0.032415 0.109245
v 0.033385 0.032415 0.109245
v 0.018487 0.032415 0.109245
v 0.014553 0.011959 0.206158
v 0.026258 0.011959 0.144394
v 0.014553 0.011959 0.144394
v 0.018487 0.015155 0.109245
v -0.018779 0.015155 0.109245
v 0.018487 0.015155 0.109245
v 0.018487 0.015155 -0.109245
v -0.018779 -0.014502 -0.109245
v -0.018779 0.015155 -0.109245
v 0.014553 0.011959 0.206158
v 0.014553 -0.011342 0.144394
v 0.014553 0.011959 0.144394
v 0.018487 -0.014502 0.109245
v 0.018487 0.015155 0.109245
v 0.018487 -0.014502 0.109245
v -0.031445 0.015155 0.109245
v 0.033385 -0.014502 0.109245
v 0.033385 -0.014502 0.109245
v -0.031445 0.015155 0.109245
v -0.031445 0.032415 0.109245
v -0.031445 0.032415 0.109245
v -0.031445 0.015155 0.109245
v 0.033385 -0.014502 0.109245
v -0.014726 -0.011342 0.206158
v -0.014726 -0.011342 0.144394
v -0.031445 0.015155 -0.109245
v -0.031445 0.015155 0.109245
v 0.014553 -0.025415 0.206158
v -0.014726 -0.025415 0.144394
v 0.033385 -0.014502 -0.109245
v 0.018487 -0.014502 -0.109245
v 0.033385 -0.032415 -0.109245
v 0.033385 -0.032415 0.109245
v 0.018487 -0.032415 0.109245
v -0.018779 -0.032415 0.109245
v -0.018779 0.015155 0.109245
v -0.031445 -0.014502 -0.109245
v -0.018779 0.032415 0.109245
v -0.018779 -0.014502 0.109245
v -0.018779 -0.014502 0.109245
v -0.018779 -0.014502 0.109245
v 0.018487 -0.014502 0.109245
v 0.033385 0.015155 0.109245
v -0.014726 0.011959 0.144394
v -0.014726 0.011959 0.206158
v 0.014553 0.025520 0.144394
v 0.018487 -0.014502 0.109245
v 0.033385 -0.032415 0.109245
v 0.033385 -0.014502 0.109245
v -0.014726 0.025520 0.144394
v -0.018779 -0.014502 0.109245
v 0.014553 -0.011342 0.206158
v -0.014726 -0.011342 0.144394
v -0.014726 0.025520 0.206158
v -0.024677 0.011959 0.206158
v -0.024677 0.011959 0.144394
v 0.014553 0.025520 0.206158
v -0.014726 -0.011342 0.144394
v 0.014553 -0.011342 0.144394
v -0.014726 -0.011342 0.144394
v -0.014726 0.011959 0.144394
v 0.014553 0.011959 0.144394
v 0.026258 -0.011342 0.144394
v -0.024677 -0.011342 0.144394
v -0.001795 -0.003086 0.325832
v -0.014726 -0.025415 0.206158
v 0.014553 -0.011342 0.144394
v 0.014553 0.011959 0.144394
v -0.014726 0.011959 0.144394
v 0.026258 -0.011342 0.206158
v -0.014726 0.011959 0.144394
v -0.024677 -0.011342 0.206158
v -0.003087 -0.001259 0.325832
v -0.001795 -0.001259 0.325832
v -0.014726 -0.011342 0.206158
v 0.026258 0.011959 0.206158
v -0.014726 0.011959 0.206158
v -0.031445 0.032415 -0.109245
vt 0.558439 0.951158
vt 0.444076 0.807451
vt 0.558439 0.807451
vt 0.625000 0.750000
vt 0.558439 0.500000
vt 0.625000 0.500000
vt 0.444076 0.951158
vt 0.375000 0.807451
vt 0.444076 0.807451
vt 0.317549 0.750000
vt 0.375000 0.750000
vt 0.317549 0.750000
vt 0.558439 1.000000
vt 0.558439 0.951158
vt 0.558439 0.807451
vt 0.444076 0.750000
vt 0.558439 0.750000
vt 0.625000 0.951158
vt 0.625000 1.000000
vt 0.625000 0.951158
vt 0.826158 0.750000
vt 0.875000 0.750000
vt 0.826158 0.750000
vt 0.558439 0.750000
vt 0.625000 0.750000
vt 0.558439 0.750000
vt 0.444076 0.000000
vt 0.375000 0.000000
vt 0.444076 0.000000
vt 0.444076 1.000000
vt 0.375000 1.000000
vt 0.444076 1.000000
vt 0.625000 0.750000
vt 0.558439 0.750000
vt 0.375000 0.807451
vt 0.375000 0.750000
vt 0.375000 0.807451
vt 0.444076 1.000000
vt 0.375000 1.000000
vt 0.375000 0.951158
vt 0.375000 0.951158
vt 0.558439 0.951158
vt 0.558439 0.807451
vt 0.558439 0.951158
vt 0.682451 0.750000
vt 0.625000 0.807451
vt 0.173842 0.500000
vt 0.317549 0.500000
vt 0.625000 0.951158
vt 0.625000 0.807451
vt 0.173842 0.750000
vt 0.173842 0.750000
vt 0.444076 0.807451
vt 0.375000 0.807451
vt 0.444076 0.807451
vt 0.125000 0.500000
vt 0.125000 0.750000
vt 0.125000 0.750000
vt 0.682451 0.500000
vt 0.826158 0.500000
vt 0.375000 1.000000
vt 0.625000 0.807451
vt 0.625000 0.750000
vt 0.682451 0.750000
vt 0.625000 0.807451
vt 0.558439 0.807451
vt 0.558439 0.750000
vt 0.558439 0.807451
vt 0.558439 0.807451
vt 0.558439 0.951158
vt 0.558439 0.807451
vt 0.558439 0.442549
vt 0.444076 0.298842
vt 0.558439 0.298842
vt 0.558439 0.807451
vt 0.444076 0.807451
vt 0.558439 0.807451
vt 0.444076 0.807451
vt 0.558439 0.807451
vt 0.444076 0.807451
vt 0.625000 1.000000
vt 0.558439 1.000000
vt 0.444076 0.750000
vt 0.444076 0.750000
vt 0.558439 1.000000
vt 0.625000 1.000000
vt 0.625000 0.000000
vt 0.558439 0.000000
vt 0.625000 0.000000
vt 0.444076 0.750000
vt 0.444076 0.951158
vt 0.444076 0.951158
vt 0.558439 0.250000
vt 0.558439 0.000000
vt 0.375000 0.807451
vt 0.375000 0.951158
vt 0.444076 0.500000
vt 0.375000 0.442549
vt 0.444076 0.442549
vt 0.375000 0.500000
vt 0.375000 0.298842
vt 0.375000 0.750000
vt 0.375000 0.807451
vt 0.375000 0.951158
vt 0.558439 0.951158
vt 0.375000 0.250000
vt 0.444076 0.250000
vt 0.625000 0.951158
vt 0.444076 0.951158
vt 0.444076 0.951158
vt 0.558439 1.000000
vt 0.444076 0.951158
vt 0.444076 0.807451
vt 0.558439 0.750000
vt 0.558439 0.951158
vt 0.558439 0.951158
vt 0.625000 0.807451
vt 0.444076 0.807451
vt 0.375000 0.750000
vt 0.444076 0.750000
vt 0.625000 0.951158
vt 0.444076 0.951158
vt 0.444076 0.807451
vt 0.444076 0.951158
vt 0.625000 0.951158
vt 0.558439 1.000000
vt 0.558439 1.000000
vt 0.625000 0.807451
vt 0.444076 0.951158
vt 0.444076 0.807451
vt 0.444076 0.951158
vt 0.558439 0.951158
vt 0.558439 0.807451
vt 0.444076 0.750000
vt 0.444076 1.000000
vt 0.375000 0.951158
vt 0.375000 0.951158
vt 0.444076 0.807451
vt 0.558439 0.807451
vt 0.558439 0.951158
vt 0.444076 0.750000
vt 0.558439 0.951158
vt 0.444076 1.000000
vt 0.444076 1.000000
vt 0.444076 0.951158
vt 0.444076 0.951158
vt 0.558439 0.750000
vt 0.558439 0.951158
vt 0.375000 0.000000
vt 0.625000 0.298842
vt 0.625000 0.250000
vt 0.625000 0.442549
vt 0.875000 0.750000
vt 0.875000 0.500000
vn 0.0000 0.0000 1.0000
vn 1.0000 0.0000 0.0000
vn 0.0000 -1.0000 -0.0000
vn 0.0000 1.0000 0.0000
vn 0.0000 0.0000 -1.0000
vn -1.0000 -0.0000 0.0000
vn 0.0000 0.9959 0.0906
vn 0.0000 0.9964 0.0849
vn 0.9938 0.0000 0.1112
vn 0.0000 0.9960 -0.0895
vn -0.9934 0.0000 0.1146
vn -0.9934 0.0000 0.1145
vn 0.0000 -0.9959 -0.0906
vn 0.0000 -0.9960 0.0895
vn -0.9942 0.0000 0.1074
vn -0.9820 0.0000 0.1891
vn 0.0000 -0.9830 0.1834
vn 0.9934 0.0000 -0.1146
vn 0.0000 0.9813 0.1925
vn -0.9938 0.0000 -0.1112
vn 0.9824 0.0000 0.1866
vn -0.9841 0.0000 0.1775
vn 0.9801 0.0000 0.1987
vn 0.0000 -0.9964 -0.0849
vn 0.0000 -0.9965 0.0840
vn 0.9945 0.0000 0.1043
vn 0.9942 0.0000 -0.1074
vn 0.0000 0.9965 -0.0840
vn -0.9945 0.0000 -0.1043
vn 0.0000 0.9835 0.1808
vn 0.0000 -0.9807 0.1953
s 1
f 1/1/1 2/2/1 3/3/1
f 4/4/2 5/5/2 6/6/2
f 7/7/1 8/8/1 9/9/1
f 10/10/1 11/11/1 12/12/1
f 13/13/1 7/7/1 14/14/1
f 15/15/1 16/16/1 17/17/1
f 18/18/1 19/19/1 20/20/1
f 21/21/1 22/22/1 18/23/1
f 23/24/1 24/25/1 25/26/1
f 26/27/1 27/28/1 28/29/1
f 29/30/1 30/31/1 31/32/1
f 25/26/1 32/33/1 33/34/1
f 12/35/1 34/36/1 35/37/1
f 28/38/1 36/39/1 29/30/1
f 37/40/1 35/37/1 38/41/1
f 39/42/1 40/43/1 41/44/1
f 4/4/1 42/45/1 24/25/1
f 24/25/1 43/46/1 32/33/1
f 10/10/3 44/47/3 45/48/3
f 46/49/1 15/15/1 47/50/1
f 48/51/1 12/12/1 37/52/1
f 49/53/2 50/54/2 51/55/2
f 48/51/3 52/56/3 44/47/3
f 53/57/1 37/52/1 27/58/1
f 21/21/4 54/59/4 55/60/4
f 27/61/1 38/41/1 36/39/1
f 32/33/1 56/62/1 57/63/1
f 58/64/1 18/23/1 42/45/1
f 42/65/1 20/20/1 43/46/1
f 59/66/4 60/67/4 61/68/4
f 62/69/1 63/70/1 64/71/1
f 65/72/5 66/73/5 67/74/5
f 68/75/2 69/76/2 70/77/2
f 71/78/1 72/79/1 73/80/1
f 22/81/1 74/82/1 19/19/1
f 75/83/1 33/34/1 76/84/1
f 19/19/1 77/85/1 78/86/1
f 79/87/1 80/88/1 22/89/1
f 81/90/1 25/26/1 75/83/1
f 82/91/4 51/55/4 83/92/4
f 84/93/6 26/27/6 85/94/6
f 86/95/3 87/96/3 50/54/3
f 88/97/5 45/98/5 89/99/5
f 81/90/2 90/100/2 88/97/2
f 89/99/5 44/101/5 66/73/5
f 91/102/1 75/83/1 11/11/1
f 38/41/1 92/103/1 93/104/1
f 11/11/1 76/84/1 34/36/1
f 64/71/1 94/105/1 72/79/1
f 66/73/5 52/106/5 95/107/5
f 78/86/1 41/44/1 96/108/1
f 97/109/1 41/44/1 98/110/1
f 80/111/1 29/30/1 74/82/1
f 85/94/1 28/29/1 80/88/1
f 43/46/1 96/108/1 56/62/1
f 97/109/1 71/78/1 99/112/1
f 39/42/1 99/112/1 63/70/1
f 100/113/1 64/71/1 71/78/1
f 56/62/1 101/114/1 57/63/1
f 59/66/3 102/115/3 61/68/3
f 40/43/7 60/67/7 101/114/7
f 103/116/8 13/13/8 14/14/8
f 40/43/9 104/117/9 61/68/9
f 105/118/1 106/119/1 107/120/1
f 103/116/6 108/121/6 102/115/6
f 105/118/10 83/92/10 51/55/10
f 98/110/11 87/96/12 83/92/12
f 34/36/1 107/120/1 106/119/1
f 63/70/1 109/122/1 94/105/1
f 36/39/1 93/104/1 30/31/1
f 76/84/1 101/114/1 107/120/1
f 74/82/1 31/32/1 77/85/1
f 35/37/1 106/119/1 92/103/1
f 99/112/1 73/80/1 109/122/1
f 62/69/1 105/118/1 40/43/1
f 33/34/1 57/63/1 101/114/1
f 20/20/1 78/86/1 96/108/1
f 100/113/1 98/110/1 105/118/1
f 110/123/3 111/124/3 69/76/3
f 112/125/4 104/117/4 108/121/4
f 113/126/4 102/115/4 114/127/4
f 115/128/2 61/68/2 104/117/2
f 116/129/1 117/130/1 118/131/1
f 72/79/7 119/132/7 120/133/7
f 40/43/13 102/115/13 41/44/13
f 105/118/14 121/134/14 51/55/14
f 103/116/15 46/49/15 112/125/15
f 98/110/14 122/135/14 31/32/14
f 105/118/9 50/54/9 92/103/9
f 73/80/14 116/129/14 109/122/14
f 31/32/16 114/127/16 77/85/16
f 109/122/11 119/132/11 94/105/11
f 86/95/17 123/136/17 124/137/17
f 73/80/9 120/133/9 125/138/9
f 98/110/18 102/115/18 83/92/18
f 56/62/19 108/121/19 104/117/19
f 105/118/20 61/68/20 40/43/20
f 118/131/1 69/76/1 111/124/1
f 125/138/1 126/139/1 117/130/1
f 119/132/1 118/131/1 127/140/1
f 120/133/1 127/140/1 126/139/1
f 128/141/21 17/17/21 16/16/21
f 117/130/1 70/77/1 69/76/1
f 127/140/1 111/124/1 129/142/1
f 126/139/1 129/142/1 70/77/1
f 130/143/22 13/13/22 113/126/22
f 107/120/23 60/67/23 121/134/23
f 59/66/24 14/14/24 103/116/24
f 82/91/25 131/144/25 130/143/25
f 110/123/25 132/145/25 133/146/25
f 133/146/6 129/142/6 111/124/6
f 124/137/6 83/92/6 87/96/6
f 49/53/6 61/68/6 51/55/6
f 130/143/6 114/127/6 122/135/6
f 103/116/2 83/92/2 102/115/2
f 134/147/2 121/134/2 60/67/2
f 82/91/3 122/135/3 83/92/3
f 31/32/1 93/104/1 98/110/1
f 128/141/3 51/55/3 121/134/3
f 135/148/4 70/77/4 129/142/4
f 95/107/6 53/149/6 26/27/6
f 5/5/5 89/99/5 65/72/5
f 23/24/2 88/97/2 5/5/2
f 67/74/5 95/107/5 84/93/5
f 55/150/5 84/93/5 136/151/5
f 54/152/5 67/74/5 55/150/5
f 58/64/4 6/6/4 54/59/4
f 79/153/4 55/60/4 136/154/4
f 91/102/3 45/48/3 90/100/3
f 6/6/5 65/72/5 54/152/5
f 49/53/26 8/8/26 86/95/26
f 82/91/27 14/14/27 7/7/27
f 110/123/26 3/3/26 2/2/26
f 133/146/15 1/1/15 135/148/15
f 49/53/28 7/7/28 9/9/28
f 49/53/29 15/15/29 59/66/29
f 82/91/15 123/136/15 7/7/15
f 59/66/8 17/17/8 134/147/8
f 59/66/26 47/50/26 15/15/26
f 41/44/7 114/127/7 102/115/7
f 68/75/8 1/1/8 3/3/8
f 115/128/30 46/49/30 47/50/30
f 92/103/31 87/96/31 93/104/31
f 49/53/25 16/16/25 9/9/25
f 41/44/12 108/121/11 96/108/12
f 10/10/1 91/102/1 11/11/1
f 18/18/1 22/81/1 19/19/1
f 21/21/1 79/153/1 22/22/1
f 23/24/1 4/4/1 24/25/1
f 26/27/1 53/149/1 27/28/1
f 29/30/1 36/39/1 30/31/1
f 25/26/1 24/25/1 32/33/1
f 12/35/1 11/11/1 34/36/1
f 28/38/1 27/61/1 36/39/1
f 37/40/1 12/35/1 35/37/1
f 39/42/1 62/69/1 40/43/1
f 4/4/1 58/64/1 42/45/1
f 24/25/1 42/65/1 43/46/1
f 48/51/1 10/10/1 12/12/1
f 53/57/1 48/51/1 37/52/1
f 27/61/1 37/40/1 38/41/1
f 32/33/1 43/46/1 56/62/1
f 58/64/1 21/21/1 18/23/1
f 42/65/1 18/18/1 20/20/1
f 62/69/1 39/42/1 63/70/1
f 71/78/1 64/71/1 72/79/1
f 22/81/1 80/111/1 74/82/1
f 75/83/1 25/26/1 33/34/1
f 19/19/1 74/82/1 77/85/1
f 79/87/1 85/94/1 80/88/1
f 81/90/1 23/24/1 25/26/1
f 91/102/1 81/90/1 75/83/1
f 38/41/1 35/37/1 92/103/1
f 11/11/1 75/83/1 76/84/1
f 64/71/1 63/70/1 94/105/1
f 97/109/1 39/42/1 41/44/1
f 80/111/1 28/38/1 29/30/1
f 85/94/1 26/27/1 28/29/1
f 43/46/1 20/20/1 96/108/1
f 97/109/1 100/113/1 71/78/1
f 39/42/1 97/109/1 99/112/1
f 100/113/1 62/69/1 64/71/1
f 34/36/1 76/84/1 107/120/1
f 63/70/1 99/112/1 109/122/1
f 36/39/1 38/41/1 93/104/1
f 76/84/1 33/34/1 101/114/1
f 74/82/1 29/30/1 31/32/1
f 35/37/1 34/36/1 106/119/1
f 99/112/1 71/78/1 73/80/1
f 62/69/1 100/113/1 105/118/1
f 33/34/1 32/33/1 57/63/1
f 20/20/1 19/19/1 78/86/1
f 100/113/1 97/109/1 98/110/1
f 116/129/1 125/138/1 117/130/1
f 118/131/1 117/130/1 69/76/1
f 125/138/1 120/133/1 126/139/1
f 119/132/1 116/129/1 118/131/1
f 120/133/1 119/132/1 127/140/1
f 117/130/1 126/139/1 70/77/1
f 127/140/1 118/131/1 111/124/1
f 126/139/1 127/140/1 129/142/1
f 136/151/6 85/94/6 79/87/6
f 1/1/1 132/145/1 2/2/1
f 4/4/2 23/24/2 5/5/2
f 7/7/1 123/136/1 8/8/1
f 13/13/1 131/144/1 7/7/1
f 15/15/1 9/9/1 16/16/1
f 10/10/3 48/51/3 44/47/3
f 46/49/1 14/14/1 15/15/1
f 49/53/2 86/95/2 50/54/2
f 48/51/3 53/57/3 52/56/3
f 21/21/4 58/64/4 54/59/4
f 59/66/4 134/147/4 60/67/4
f 65/72/5 89/99/5 66/73/5
f 68/75/2 110/123/2 69/76/2
f 82/91/4 49/53/4 51/55/4
f 84/93/6 95/107/6 26/27/6
f 86/95/3 124/137/3 87/96/3
f 88/97/5 90/100/5 45/98/5
f 81/90/2 91/102/2 90/100/2
f 89/99/5 45/98/5 44/101/5
f 66/73/5 44/101/5 52/106/5
f 78/86/1 77/85/1 41/44/1
f 56/62/1 40/43/1 101/114/1
f 59/66/3 103/116/3 102/115/3
f 40/43/7 61/68/7 60/67/7
f 103/116/8 113/126/8 13/13/8
f 40/43/9 56/62/9 104/117/9
f 105/118/1 92/103/1 106/119/1
f 103/116/6 112/125/6 108/121/6
f 105/118/10 98/110/10 83/92/10
f 98/110/11 93/104/11 87/96/12
f 110/123/3 133/146/3 111/124/3
f 112/125/4 115/128/4 104/117/4
f 113/126/4 103/116/4 102/115/4
f 115/128/2 59/66/2 61/68/2
f 72/79/7 94/105/7 119/132/7
f 40/43/13 61/68/13 102/115/13
f 105/118/14 107/120/14 121/134/14
f 103/116/15 14/14/15 46/49/15
f 98/110/14 83/92/14 122/135/14
f 105/118/9 51/55/9 50/54/9
f 73/80/14 125/138/14 116/129/14
f 31/32/16 122/135/16 114/127/16
f 109/122/11 116/129/11 119/132/11
f 86/95/17 8/8/17 123/136/17
f 73/80/9 72/79/9 120/133/9
f 98/110/18 41/44/18 102/115/18
f 56/62/19 96/108/19 108/121/19
f 105/118/20 51/55/20 61/68/20
f 128/141/21 134/147/21 17/17/21
f 130/143/22 131/144/22 13/13/22
f 107/120/23 101/114/23 60/67/23
f 59/66/24 15/15/24 14/14/24
f 82/91/25 7/7/25 131/144/25
f 110/123/25 2/2/25 132/145/25
f 133/146/6 135/148/6 129/142/6
f 124/137/6 82/91/6 83/92/6
f 49/53/6 59/66/6 61/68/6
f 130/143/6 113/126/6 114/127/6
f 103/116/2 82/91/2 83/92/2
f 134/147/2 128/141/2 121/134/2
f 82/91/3 130/143/3 122/135/3
f 31/32/1 30/31/1 93/104/1
f 128/141/3 49/53/3 51/55/3
f 135/148/4 68/75/4 70/77/4
f 95/107/6 52/106/6 53/149/6
f 5/5/5 88/97/5 89/99/5
f 23/24/2 81/90/2 88/97/2
f 67/74/5 66/73/5 95/107/5
f 55/150/5 67/74/5 84/93/5
f 54/152/5 65/72/5 67/74/5
f 58/64/4 4/4/4 6/6/4
f 79/153/4 21/21/4 55/60/4
f 91/102/3 10/10/3 45/48/3
f 6/6/5 5/5/5 65/72/5
f 49/53/26 9/9/26 8/8/26
f 82/91/27 103/116/27 14/14/27
f 110/123/26 68/75/26 3/3/26
f 133/146/15 132/145/15 1/1/15
f 49/53/28 82/91/28 7/7/28
f 49/53/29 9/9/29 15/15/29
f 82/91/15 124/137/15 123/136/15
f 59/66/8 15/15/8 17/17/8
f 59/66/26 115/128/26 47/50/26
f 41/44/7 77/85/7 114/127/7
f 68/75/8 135/148/8 1/1/8
f 115/128/30 112/125/30 46/49/30
f 92/103/31 50/54/31 87/96/31
f 49/53/25 128/141/25 16/16/25
f 41/44/12 102/115/11 108/121/11
f 136/151/6 84/93/6 85/94/6
