# Blender v2.90.1 OBJ File: ''
# www.blender.org
o Cube.004_Cube.009
v -0.103009 -0.914368 -0.194190
v -0.103009 -0.016012 -0.304592
v -0.103009 -0.868399 -0.454891
v -0.103009 -0.061981 -0.043891
v 0.058109 -0.016012 -0.304592
v 0.058109 -0.061981 -0.043891
v 0.058109 -0.868399 -0.454891
v 0.058109 -0.914368 -0.194190
v -0.094614 0.206129 -0.298894
v -0.094614 0.045011 -0.348023
v -0.094614 0.045011 -0.298894
v -0.094614 0.206130 -0.348023
v 0.049714 0.045011 -0.348023
v 0.049714 0.045011 -0.250738
v 0.049714 0.206129 0.553535
v 0.049714 0.045011 0.553535
v -0.094614 0.045011 0.553535
v -0.094614 0.045011 -0.250738
v -0.094614 0.206129 -0.250738
v 0.049714 0.206129 -0.250738
v 0.049714 0.206129 -0.298894
v 0.049714 0.251370 -0.250738
v 0.049714 0.045011 -0.298894
v -0.094614 0.206129 0.553535
v 0.049714 0.206130 -0.348023
v -0.094614 0.251370 -0.298894
v 0.049714 0.251370 -0.298894
v -0.094614 0.251370 -0.250738
v -0.088831 0.047891 -0.004253
v -0.088831 -0.113227 -0.419029
v -0.088831 -0.113227 -0.004253
v -0.088831 0.047891 -0.419029
v 0.043931 -0.113227 -0.419029
v 0.043931 -0.113227 0.172720
v 0.043931 0.047891 0.513904
v 0.043931 -0.113227 0.513904
v -0.088831 -0.113227 0.513904
v -0.088831 -0.113227 0.172720
v -0.088831 0.047891 0.172720
v 0.043931 0.047891 0.172720
v -0.088831 0.047891 0.139155
v 0.043931 0.047891 0.139155
v 0.043931 -0.316330 0.172720
v 0.043931 -0.348431 0.139155
v 0.043931 -0.316330 0.139155
v 0.043931 -0.113227 0.139155
v -0.088831 0.047891 0.513904
v 0.043931 -0.113227 0.028966
v -0.088831 -0.113227 0.139155
v -0.088831 -0.113227 0.028966
v -0.088831 0.047891 0.028966
v 0.043931 0.047891 0.028966
v -0.088831 -0.348431 0.172720
v -0.088831 -0.348431 0.139155
v -0.088831 -0.316330 0.172720
v 0.043931 -0.348431 0.172720
v -0.088831 -0.403705 0.018038
v -0.088831 -0.316330 0.139155
v -0.088831 -0.435807 -0.118482
v -0.088831 -0.435807 0.018038
v 0.043931 -0.435807 0.018038
v 0.043931 -0.403705 0.018038
v 0.043931 -0.403705 -0.118482
v -0.088831 -0.403705 -0.118482
v 0.043931 -0.435807 -0.118482
v 0.043931 0.047891 -0.004253
v 0.043931 -0.246804 0.028966
v 0.043931 -0.113227 -0.004253
v 0.043931 0.047891 -0.419029
v -0.088831 -0.246804 0.028966
v -0.088831 -0.246804 -0.004253
v -0.088831 -0.246804 0.028966
v -0.088831 -0.246804 -0.004253
v 0.043931 -0.246804 -0.004253
v 0.043931 -0.246804 -0.004253
v -0.088831 -0.319561 0.050659
v 0.043931 -0.246804 0.028966
v 0.043931 -0.319561 0.050659
v -0.088831 -0.319561 0.083878
v 0.043931 -0.319561 0.083878
vt 0.375000 0.500000
vt 0.625000 0.513623
vt 0.375000 0.513623
vt 0.375000 0.138852
vt 0.375000 0.129950
vt 0.375000 0.129950
vt 0.625000 0.250000
vt 0.375000 0.000000
vt 0.625000 0.000000
vt 0.375000 0.750000
vt 0.125000 0.500000
vt 0.375000 0.500000
vt 0.875000 0.750000
vt 0.625000 0.500000
vt 0.875000 0.500000
vt 0.625000 0.138852
vt 0.625000 0.129950
vt 0.375000 0.100422
vt 0.375000 0.100422
vt 0.375000 0.100422
vt 0.625000 0.526977
vt 0.375000 0.750000
vt 0.375000 0.526977
vt 0.625000 1.000000
vt 0.625000 0.750000
vt 0.125000 0.526977
vt 0.875000 0.750000
vt 0.875000 0.526977
vt 0.625000 0.513623
vt 0.375000 0.611148
vt 0.125000 0.500000
vt 0.375000 0.500000
vt 0.625000 0.223023
vt 0.375000 0.000000
vt 0.625000 0.000000
vt 0.625000 0.500000
vt 0.625000 0.236377
vt 0.375000 0.250000
vt 0.375000 0.236377
vt 0.875000 0.513623
vt 0.625000 0.500000
vt 0.875000 0.500000
vt 0.375000 0.223023
vt 0.875000 0.526977
vt 0.875000 0.513623
vt 0.625000 0.236377
vt 0.625000 0.526977
vt 0.625000 0.250000
vt 0.375000 0.250000
vt 0.625000 0.658572
vt 0.375000 0.750000
vt 0.375000 0.658572
vt 0.625000 1.000000
vt 0.625000 0.750000
vt 0.125000 0.658572
vt 0.875000 0.750000
vt 0.875000 0.658572
vt 0.125000 0.620050
vt 0.375000 0.620050
vt 0.125000 0.620050
vt 0.375000 0.658572
vt 0.375000 0.649578
vt 0.375000 0.658572
vt 0.375000 0.611148
vt 0.125000 0.611148
vt 0.375000 0.250000
vt 0.625000 0.620050
vt 0.375000 0.649578
vt 0.375000 0.620050
vt 0.625000 0.611148
vt 0.375000 0.620050
vt 0.125000 0.611148
vt 0.375000 0.611148
vt 0.625000 0.100422
vt 0.375000 0.091428
vt 0.625000 0.091428
vt 0.125000 0.649578
vt 0.375000 0.649578
vt 0.125000 0.658572
vt 0.125000 0.658572
vt 0.375000 0.649578
vt 0.125000 0.649578
vt 0.375000 0.091428
vt 0.375000 0.091428
vt 0.375000 0.100422
vt 0.125000 0.649578
vt 0.375000 0.100422
vt 0.375000 0.100422
vt 0.125000 0.611148
vt 0.375000 0.611148
vt 0.375000 0.129950
vt 0.375000 0.138852
vt 0.375000 0.129950
vt 0.375000 0.649578
vt 0.125000 0.649578
vt 0.375000 0.649578
vt 0.125000 0.649578
vt 0.375000 0.649578
vt 0.125000 0.649578
vt 0.125000 0.649578
vt 0.875000 0.620050
vt 0.875000 0.611148
vt 0.125000 0.620050
vt 0.125000 0.620050
vt 0.125000 0.500000
vt 0.125000 0.513623
vt 0.625000 0.250000
vt 0.875000 0.500000
vt 0.375000 0.138852
vt 0.625000 1.000000
vt 0.625000 0.750000
vt 0.375000 0.000000
vt 0.625000 0.000000
vt 0.375000 0.620050
vt 0.125000 0.611148
vt 0.875000 0.649578
vt 0.625000 0.649578
vt 0.375000 0.138852
vt 0.125000 0.750000
vt 0.375000 1.000000
vt 0.125000 0.750000
vt 0.625000 0.223023
vt 0.375000 1.000000
vt 0.125000 0.750000
vt 0.375000 0.100422
vt 0.375000 1.000000
vn 1.0000 0.0000 0.0000
vn -1.0000 0.0000 0.0000
vn 0.0000 0.1736 -0.9848
vn 0.0000 -0.1736 0.9848
vn 0.0000 -0.0000 1.0000
vn 0.0000 -1.0000 -0.0000
vn 0.0000 1.0000 0.0000
vn 0.0000 0.0000 -1.0000
vn 0.0000 0.6024 0.7982
vn 0.0000 0.9848 0.1736
vn 0.0000 0.8110 -0.5851
vn 0.0000 -0.6024 -0.7982
vn 0.0000 0.0000 0.0000
vn 0.0000 -0.9848 -0.1736
vn 0.0000 -0.8110 0.5851
s 1
f 13/1/1 21/2/1 23/3/1
f 31/4/2 70/5/2 50/6/2
f 4/7/2 3/8/2 1/9/2
f 7/10/3 2/11/3 5/12/3
f 1/13/4 6/14/4 4/15/4
f 29/16/2 50/6/2 51/17/2
f 57/18/2 54/19/2 58/20/2
f 20/21/1 16/22/1 14/23/1
f 24/24/5 16/22/5 15/25/5
f 16/22/6 18/26/6 14/23/6
f 24/27/7 20/21/7 19/28/7
f 27/29/1 20/21/1 21/2/1
f 68/30/6 30/31/6 33/32/6
f 21/2/1 14/23/1 23/3/1
f 19/33/2 17/34/2 24/35/2
f 69/36/1 68/30/1 33/32/1
f 9/37/2 10/38/2 11/39/2
f 9/40/7 25/41/7 12/42/7
f 9/37/2 18/43/2 19/33/2
f 28/44/7 27/29/7 26/45/7
f 26/45/8 21/2/8 9/40/8
f 19/33/2 26/46/2 9/37/2
f 22/47/5 19/28/5 20/21/5
f 32/48/2 31/4/2 29/16/2
f 69/36/8 30/49/8 32/48/8
f 40/50/1 36/51/1 34/52/1
f 47/53/5 36/51/5 35/54/5
f 36/51/6 38/55/6 34/52/6
f 47/56/7 40/50/7 39/57/7
f 79/58/9 77/59/9 72/60/9
f 56/61/1 45/62/1 43/63/1
f 74/64/8 31/65/8 68/30/8
f 6/14/10 2/66/10 4/7/10
f 52/67/1 46/68/1 48/69/1
f 66/70/1 48/69/1 68/30/1
f 80/71/6 76/72/6 78/73/6
f 41/74/2 38/75/2 39/76/2
f 56/61/6 54/77/6 44/78/6
f 53/79/5 43/63/5 55/80/5
f 62/81/11 58/82/11 45/62/11
f 58/20/2 53/83/2 55/84/2
f 49/85/2 55/84/2 38/75/2
f 45/62/8 49/86/8 46/68/8
f 55/80/5 34/52/5 38/55/5
f 43/63/1 46/68/1 34/52/1
f 64/87/2 60/88/2 57/18/2
f 78/73/12 71/89/12 75/90/12
f 44/78/1 62/81/1 45/62/1
f 72/91/2 76/92/2 79/93/2
f 65/94/8 64/95/8 63/96/8
f 59/97/6 61/98/6 60/99/6
f 63/96/7 57/100/7 62/81/7
f 61/98/1 63/96/1 62/81/1
f 51/101/7 66/70/7 29/102/7
f 70/103/13 48/69/5 50/104/5
f 6/14/1 7/10/1 5/12/1
f 46/68/6 50/104/6 48/69/6
f 23/3/6 10/105/6 13/1/6
f 51/17/2 49/85/2 41/74/2
f 14/23/6 11/106/6 23/3/6
f 25/41/8 10/38/8 12/107/8
f 29/102/7 69/36/7 32/108/7
f 70/5/13 71/109/13 72/91/13
f 1/110/14 7/10/14 8/111/14
f 39/76/2 37/112/2 47/113/2
f 60/99/15 44/78/15 54/77/15
f 67/114/1 68/30/1 48/69/1
f 73/115/13 75/90/13 71/89/13
f 67/114/13 72/60/13 77/59/13
f 74/64/13 77/59/13 75/90/13
f 41/116/7 52/67/7 51/101/7
f 39/57/7 42/117/7 41/116/7
f 77/59/1 78/73/1 75/90/1
f 70/5/13 73/118/13 71/109/13
f 73/115/13 74/64/13 75/90/13
f 67/114/13 70/103/13 72/60/13
f 74/64/13 67/114/13 77/59/13
f 42/117/1 34/52/1 46/68/1
f 13/1/1 25/41/1 21/2/1
f 31/4/2 73/118/2 70/5/2
f 4/7/2 2/66/2 3/8/2
f 7/10/3 3/119/3 2/11/3
f 1/13/4 8/111/4 6/14/4
f 29/16/2 31/4/2 50/6/2
f 57/18/2 60/88/2 54/19/2
f 20/21/1 15/25/1 16/22/1
f 24/24/5 17/120/5 16/22/5
f 16/22/6 17/121/6 18/26/6
f 24/27/7 15/25/7 20/21/7
f 27/29/1 22/47/1 20/21/1
f 68/30/6 31/65/6 30/31/6
f 21/2/1 20/21/1 14/23/1
f 19/33/2 18/43/2 17/34/2
f 69/36/1 66/70/1 68/30/1
f 9/37/2 12/107/2 10/38/2
f 9/40/7 21/2/7 25/41/7
f 9/37/2 11/39/2 18/43/2
f 28/44/7 22/47/7 27/29/7
f 26/45/8 27/29/8 21/2/8
f 19/33/2 28/122/2 26/46/2
f 22/47/5 28/44/5 19/28/5
f 32/48/2 30/49/2 31/4/2
f 69/36/8 33/32/8 30/49/8
f 40/50/1 35/54/1 36/51/1
f 47/53/5 37/123/5 36/51/5
f 36/51/6 37/124/6 38/55/6
f 47/56/7 35/54/7 40/50/7
f 79/58/9 80/71/9 77/59/9
f 56/61/1 44/78/1 45/62/1
f 74/64/8 73/115/8 31/65/8
f 6/14/10 5/12/10 2/66/10
f 52/67/1 42/117/1 46/68/1
f 66/70/1 52/67/1 48/69/1
f 80/71/6 79/58/6 76/72/6
f 41/74/2 49/85/2 38/75/2
f 56/61/6 53/79/6 54/77/6
f 53/79/5 56/61/5 43/63/5
f 62/81/11 57/100/11 58/82/11
f 58/20/2 54/19/2 53/83/2
f 49/85/2 58/20/2 55/84/2
f 45/62/8 58/82/8 49/86/8
f 55/80/5 43/63/5 34/52/5
f 43/63/1 45/62/1 46/68/1
f 64/87/2 59/125/2 60/88/2
f 78/73/12 76/72/12 71/89/12
f 44/78/1 61/98/1 62/81/1
f 72/91/2 71/109/2 76/92/2
f 65/94/8 59/97/8 64/95/8
f 59/97/6 65/94/6 61/98/6
f 63/96/7 64/95/7 57/100/7
f 61/98/1 65/94/1 63/96/1
f 51/101/7 52/67/7 66/70/7
f 70/103/13 67/114/13 48/69/5
f 6/14/1 8/111/1 7/10/1
f 46/68/6 49/86/6 50/104/6
f 23/3/6 11/106/6 10/105/6
f 51/17/2 50/6/2 49/85/2
f 14/23/6 18/26/6 11/106/6
f 25/41/8 13/1/8 10/38/8
f 29/102/7 66/70/7 69/36/7
f 1/110/14 3/126/14 7/10/14
f 39/76/2 38/75/2 37/112/2
f 60/99/15 61/98/15 44/78/15
f 67/114/1 74/64/1 68/30/1
f 41/116/7 42/117/7 52/67/7
f 39/57/7 40/50/7 42/117/7
f 77/59/1 80/71/1 78/73/1
f 42/117/1 40/50/1 34/52/1
