# Blender v2.90.1 OBJ File: ''
# www.blender.org
o Cube.003_Cube.002
v 0.066021 -0.000000 1.662587
v 0.066021 -0.066021 1.662587
v 0.066021 -0.066021 1.532756
v 0.066021 -0.000000 1.532756
v 0.050947 -0.066021 1.662587
v 0.035873 -0.066021 1.662587
v 0.035873 -0.066021 1.532756
v 0.050947 -0.066021 1.532756
v -0.066021 -0.000000 1.491842
v -0.066021 -0.066021 1.491842
v -0.066021 -0.066021 1.532756
v -0.066021 -0.000000 1.532756
v -0.066021 -0.000000 1.662587
v -0.066021 -0.066021 1.662587
v -0.066021 -0.066021 1.792418
v -0.066021 -0.000000 1.792418
v -0.046853 0.066021 1.491842
v -0.027685 0.066021 1.491842
v -0.027685 0.066021 1.450927
v -0.046853 0.066021 1.450927
v 0.050947 -0.066021 1.491842
v 0.035873 -0.066021 1.491842
v 0.035873 -0.066021 1.450927
v 0.050947 -0.066021 1.450927
v 0.050947 0.000000 -1.792418
v 0.050947 -0.066021 -1.792418
v 0.035873 -0.066021 -1.792418
v 0.035873 0.000000 -1.792418
v -0.046853 -0.000000 1.792418
v -0.046853 -0.066021 1.792418
v -0.027685 -0.066021 1.792418
v -0.027685 -0.000000 1.792418
v -0.046853 0.066021 1.662587
v -0.027685 0.066021 1.662587
v -0.027685 0.066021 1.532756
v -0.046853 0.066021 1.532756
v -0.046853 0.066021 -0.014549
v -0.027685 0.066021 -0.014549
v -0.027685 0.066021 -1.480025
v -0.046853 0.066021 -1.480025
v 0.050947 -0.066021 -0.014549
v 0.035873 -0.066021 -0.014549
v 0.035873 -0.066021 -1.480025
v 0.050947 -0.066021 -1.480025
v -0.046853 0.000000 -1.792418
v -0.046853 -0.066021 -1.792418
v -0.066021 -0.066021 -1.792418
v -0.066021 0.000000 -1.792418
v 0.066021 0.000000 -0.014549
v 0.066021 -0.066021 -0.014549
v 0.066021 -0.066021 -1.480025
v 0.066021 0.000000 -1.480025
v 0.066021 -0.000000 1.491842
v 0.066021 -0.066021 1.491842
v 0.066021 -0.066021 1.450927
v 0.066021 -0.000000 1.450927
v 0.050947 0.066021 1.491842
v 0.066021 0.066021 1.491842
v 0.066021 0.066021 1.450927
v 0.050947 0.066021 1.450927
v 0.004094 0.094477 1.450927
v 0.035873 0.094477 1.450927
v 0.035873 0.066021 1.450927
v 0.004094 0.066021 1.450927
v 0.050947 0.066021 -0.014549
v 0.066021 0.066021 -0.014549
v 0.066021 0.066021 -1.480025
v 0.050947 0.066021 -1.480025
v 0.004094 0.122933 1.491842
v 0.035873 0.122933 1.491842
v 0.035873 0.122933 1.450927
v 0.004094 0.122933 1.450927
v 0.035873 0.094477 1.491842
v 0.035873 0.094477 1.532756
v 0.035873 0.066021 1.532756
v 0.035873 0.066021 1.491842
v 0.004094 0.094477 1.532756
v -0.027685 0.094477 1.532756
v 0.004094 0.066021 1.532756
v -0.027685 0.094477 1.491842
v -0.027685 0.094477 1.450927
v 0.050947 -0.000000 1.792418
v 0.050947 -0.066021 1.792418
v 0.066021 -0.066021 1.792418
v 0.066021 -0.000000 1.792418
v 0.004094 0.000000 -1.792418
v 0.004094 -0.066021 -1.792418
v -0.027685 -0.066021 -1.792418
v -0.027685 0.000000 -1.792418
v 0.004094 0.066021 1.662587
v 0.035873 0.066021 1.662587
v 0.066021 0.066021 -1.573395
v 0.035873 0.066021 -1.573395
v 0.050947 0.066021 -1.573395
v 0.066021 0.066021 -1.573395
v -0.046853 0.066021 -1.682907
v -0.027685 0.066021 -1.682907
v -0.027685 0.066021 -1.792418
v -0.046853 0.066021 -1.792418
v 0.004094 -0.000000 1.792418
v 0.004094 -0.066021 1.792418
v 0.035873 -0.066021 1.792418
v 0.035873 -0.000000 1.792418
v 0.066021 0.000000 -1.526710
v 0.066021 -0.066021 -1.526710
v 0.066021 -0.066021 -1.573395
v 0.066021 0.000000 -1.573395
v 0.050947 0.085498 -1.573395
v 0.066021 0.085498 -1.573395
v 0.050947 0.104974 -1.526710
v 0.066021 0.104974 -1.526710
v 0.066021 0.104974 -1.573395
v 0.050947 0.104974 -1.573395
v 0.035873 0.085498 -1.526710
v 0.035873 0.085498 -1.573395
v 0.035873 0.066021 -1.526710
v 0.035873 0.066021 -1.573395
v 0.035873 0.066021 -1.480025
v 0.066021 0.066021 -1.526710
v 0.066021 0.066021 -1.480025
v 0.035873 0.066021 -1.480025
v 0.066021 0.104974 -1.480025
v 0.050947 0.104974 -1.480025
v 0.066021 0.085498 -1.480025
v 0.066021 0.085498 -1.526710
v -0.046853 0.066021 -1.526710
v -0.027685 0.066021 -1.526710
v -0.027685 0.066021 -1.573395
v -0.046853 0.066021 -1.573395
v 0.066021 -0.066021 -1.682907
v 0.066021 -0.066021 -1.792418
v 0.066021 0.000000 -1.682907
v 0.066021 0.000000 -1.792418
v 0.050947 0.066021 -1.682907
v 0.066021 0.066021 -1.682907
v 0.066021 0.066021 -1.792418
v 0.050947 0.066021 -1.792418
v -0.066021 0.000000 -1.526710
v -0.066021 -0.066021 -1.526710
v -0.066021 -0.066021 -1.480025
v -0.066021 0.000000 -1.480025
v -0.066021 0.000000 -1.682907
v -0.066021 -0.066021 -1.682907
v -0.066021 -0.066021 -1.573395
v -0.066021 0.000000 -1.573395
v -0.066021 0.000000 -0.014549
v -0.066021 -0.066021 -0.014549
v -0.066021 -0.066021 1.450927
v -0.066021 -0.000000 1.450927
v 0.004094 0.066021 -1.682907
v 0.035873 0.066021 -1.682907
v 0.035873 0.066021 -1.792418
v 0.004094 0.066021 -1.792418
v -0.046853 -0.066021 -1.480025
v 0.004094 0.066021 -1.526710
v 0.035873 0.066021 -1.526710
v 0.004094 0.066021 -1.573395
v 0.004094 0.066021 -0.014549
v 0.035873 0.066021 -0.014549
v 0.004094 0.066021 -1.480025
v -0.046853 -0.066021 1.491842
v -0.046853 -0.066021 1.450927
v -0.046853 -0.066021 -0.014549
v -0.046853 -0.066021 1.662587
v -0.046853 -0.066021 1.532756
v 0.004094 -0.066021 1.662587
v -0.027685 -0.066021 1.662587
v -0.027685 -0.066021 1.532756
v 0.004094 -0.066021 1.532756
v 0.050947 0.066021 1.662587
v 0.066021 0.066021 1.662587
v 0.066021 0.066021 1.532756
v 0.050947 0.066021 1.532756
v 0.004094 -0.066021 -0.014549
v -0.027685 -0.066021 -0.014549
v -0.027685 -0.066021 -1.480025
v 0.004094 -0.066021 -1.480025
v 0.004094 -0.066021 1.491842
v -0.027685 -0.066021 1.491842
v -0.027685 -0.066021 1.450927
v 0.004094 -0.066021 1.450927
v 0.050947 0.066021 -1.573395
v 0.066021 0.066021 -1.526710
v 0.035873 0.066021 1.792418
v 0.050947 0.066021 1.792418
v 0.066021 0.066021 1.792418
v -0.066021 0.066021 -0.014549
v -0.066021 0.066021 1.450927
v -0.066021 0.066021 -1.480025
v -0.066021 0.066021 -1.682907
v -0.066021 0.066021 -1.573395
v -0.066021 0.066021 -1.792418
v -0.066021 0.066021 -1.526710
v 0.035873 0.085498 -1.480025
v 0.035873 0.104974 -1.480025
v 0.035873 0.104974 -1.526710
v 0.035873 0.104974 -1.573395
v 0.004094 0.066021 1.792418
v -0.027685 0.066021 1.792418
v -0.027685 0.122933 1.532756
v -0.027685 0.122933 1.491842
v -0.027685 0.122933 1.450927
v 0.035873 0.122933 1.532756
v 0.004094 0.122933 1.532756
v -0.066021 0.066021 1.662587
v -0.066021 0.066021 1.532756
v -0.066021 0.066021 1.792418
v -0.046853 0.066021 1.792418
v -0.066021 0.066021 1.491842
vt 0.500000 0.740946
vt 0.375000 0.740946
vt 0.375000 0.731892
vt 0.500000 0.731892
vt 0.346460 0.740946
vt 0.317919 0.740946
vt 0.317919 0.731892
vt 0.346460 0.731892
vt 0.500000 0.020962
vt 0.375000 0.020962
vt 0.375000 0.018108
vt 0.500000 0.018108
vt 0.500000 0.009054
vt 0.375000 0.009054
vt 0.375000 0.000000
vt 0.500000 0.000000
vt 0.838709 0.729038
vt 0.802417 0.729038
vt 0.802417 0.726185
vt 0.838709 0.726185
vt 0.346460 0.729038
vt 0.317919 0.729038
vt 0.317919 0.726185
vt 0.346460 0.726185
vt 0.500000 0.471460
vt 0.375000 0.471460
vt 0.375000 0.442919
vt 0.500000 0.442919
vt 0.500000 0.963709
vt 0.375000 0.963709
vt 0.375000 0.927417
vt 0.500000 0.927417
vt 0.838709 0.740946
vt 0.802417 0.740946
vt 0.802417 0.731892
vt 0.838709 0.731892
vt 0.838709 0.623986
vt 0.802417 0.623986
vt 0.802417 0.521786
vt 0.838709 0.521786
vt 0.346460 0.623986
vt 0.317919 0.623986
vt 0.317919 0.521786
vt 0.346460 0.521786
vt 0.500000 0.286291
vt 0.375000 0.286291
vt 0.375000 0.250000
vt 0.500000 0.250000
vt 0.500000 0.623986
vt 0.375000 0.623986
vt 0.375000 0.521786
vt 0.500000 0.521786
vt 0.500000 0.729038
vt 0.375000 0.729038
vt 0.375000 0.726185
vt 0.500000 0.726185
vt 0.653540 0.729038
vt 0.625000 0.729038
vt 0.625000 0.726185
vt 0.653540 0.726185
vt 0.742249 0.726185
vt 0.682081 0.726185
vt 0.682081 0.726185
vt 0.742249 0.726185
vt 0.653540 0.623986
vt 0.625000 0.623986
vt 0.625000 0.521786
vt 0.653540 0.521786
vt 0.742249 0.729038
vt 0.682081 0.729038
vt 0.682081 0.726185
vt 0.742249 0.726185
vt 0.682081 0.729038
vt 0.682081 0.731892
vt 0.682081 0.731892
vt 0.682081 0.729038
vt 0.742249 0.731892
vt 0.802417 0.731892
vt 0.742249 0.731892
vt 0.802417 0.729038
vt 0.802417 0.726185
vt 0.500000 0.778540
vt 0.375000 0.778540
vt 0.375000 0.750000
vt 0.500000 0.750000
vt 0.500000 0.382751
vt 0.375000 0.382751
vt 0.375000 0.322583
vt 0.500000 0.322583
vt 0.742249 0.740946
vt 0.682081 0.740946
vt 0.625000 0.515274
vt 0.682081 0.515274
vt 0.653540 0.515274
vt 0.625000 0.515274
vt 0.838709 0.507637
vt 0.802417 0.507637
vt 0.802417 0.500000
vt 0.838709 0.500000
vt 0.500000 0.867249
vt 0.375000 0.867249
vt 0.375000 0.807081
vt 0.500000 0.807081
vt 0.500000 0.518530
vt 0.375000 0.518530
vt 0.375000 0.515274
vt 0.500000 0.515274
vt 0.653540 0.515274
vt 0.625000 0.515274
vt 0.653540 0.518530
vt 0.625000 0.518530
vt 0.625000 0.515274
vt 0.653540 0.515274
vt 0.682081 0.518530
vt 0.682081 0.515274
vt 0.682081 0.518530
vt 0.682081 0.515274
vt 0.682081 0.521786
vt 0.625000 0.518530
vt 0.625000 0.521786
vt 0.682081 0.521786
vt 0.625000 0.521786
vt 0.653540 0.521786
vt 0.625000 0.521786
vt 0.625000 0.518530
vt 0.838709 0.518530
vt 0.802417 0.518530
vt 0.802417 0.515274
vt 0.838709 0.515274
vt 0.375000 0.507637
vt 0.346460 0.500000
vt 0.375000 0.500000
vt 0.500000 0.507637
vt 0.500000 0.500000
vt 0.653540 0.507637
vt 0.625000 0.507637
vt 0.625000 0.500000
vt 0.653540 0.500000
vt 0.500000 0.231470
vt 0.375000 0.231470
vt 0.375000 0.228214
vt 0.500000 0.228214
vt 0.500000 0.242363
vt 0.375000 0.242363
vt 0.375000 0.234726
vt 0.500000 0.234726
vt 0.500000 0.126015
vt 0.375000 0.126015
vt 0.375000 0.023815
vt 0.500000 0.023815
vt 0.742249 0.507637
vt 0.682081 0.507637
vt 0.682081 0.500000
vt 0.742249 0.500000
vt 0.161292 0.500000
vt 0.125000 0.507637
vt 0.125000 0.500000
vt 0.161292 0.521786
vt 0.125000 0.521786
vt 0.125000 0.518530
vt 0.742249 0.518530
vt 0.682081 0.518530
vt 0.742249 0.515274
vt 0.742249 0.623986
vt 0.682081 0.623986
vt 0.742249 0.521786
vt 0.161292 0.729038
vt 0.125000 0.729038
vt 0.125000 0.726185
vt 0.161292 0.726185
vt 0.161292 0.623986
vt 0.125000 0.623986
vt 0.161292 0.740946
vt 0.125000 0.740946
vt 0.125000 0.731892
vt 0.161292 0.731892
vt 0.257751 0.740946
vt 0.197583 0.740946
vt 0.197583 0.731892
vt 0.257751 0.731892
vt 0.653540 0.740946
vt 0.625000 0.740946
vt 0.625000 0.731892
vt 0.653540 0.731892
vt 0.257751 0.623986
vt 0.197583 0.623986
vt 0.197583 0.521786
vt 0.257751 0.521786
vt 0.257751 0.729038
vt 0.197583 0.729038
vt 0.197583 0.726185
vt 0.257751 0.726185
vt 0.653540 0.515274
vt 0.625000 0.518530
vt 0.682081 0.750000
vt 0.653540 0.750000
vt 0.625000 0.750000
vt 0.317919 0.750000
vt 0.257751 0.750000
vt 0.197583 0.750000
vt 0.161292 0.750000
vt 0.125000 0.750000
vt 0.625000 0.126015
vt 0.625000 0.023815
vt 0.625000 0.228214
vt 0.625000 0.242363
vt 0.625000 0.234726
vt 0.625000 0.250000
vt 0.625000 0.231470
vt 0.875000 0.518530
vt 0.875000 0.515274
vt 0.875000 0.521786
vt 0.682081 0.521786
vt 0.682081 0.521786
vt 0.682081 0.518530
vt 0.682081 0.515274
vt 0.625000 0.867249
vt 0.625000 0.807081
vt 0.625000 0.927417
vt 0.875000 0.507637
vt 0.875000 0.500000
vt 0.802417 0.750000
vt 0.742249 0.750000
vt 0.625000 0.382751
vt 0.625000 0.322583
vt 0.625000 0.442919
vt 0.625000 0.778540
vt 0.802417 0.731892
vt 0.802417 0.729038
vt 0.802417 0.726185
vt 0.682081 0.731892
vt 0.742249 0.731892
vt 0.625000 0.286291
vt 0.875000 0.623986
vt 0.875000 0.726185
vt 0.875000 0.740946
vt 0.875000 0.731892
vt 0.875000 0.750000
vt 0.838709 0.750000
vt 0.625000 0.963709
vt 0.625000 1.000000
vt 0.500000 1.000000
vt 0.375000 1.000000
vt 0.625000 0.471460
vt 0.875000 0.729038
vt 0.625000 0.009054
vt 0.625000 0.000000
vt 0.625000 0.018108
vt 0.625000 0.020962
vt 0.346460 0.750000
vn 1.0000 0.0000 0.0000
vn 0.0000 -1.0000 -0.0000
vn -1.0000 0.0000 0.0000
vn 0.0000 1.0000 0.0000
vn 0.0000 0.0000 -1.0000
vn 0.0000 0.0000 1.0000
vn 0.0000 0.0000 0.0000
vn -0.2706 -0.2706 -0.9239
vn 0.2706 -0.2706 -0.9239
vn 0.2706 0.2706 -0.9239
s 1
f 1/1/1 2/2/1 3/3/1 4/4/1
f 5/5/2 6/6/2 7/7/2 8/8/2
f 9/9/3 10/10/3 11/11/3 12/12/3
f 13/13/3 14/14/3 15/15/3 16/16/3
f 17/17/4 18/18/4 19/19/4 20/20/4
f 21/21/2 22/22/2 23/23/2 24/24/2
f 25/25/5 26/26/5 27/27/5 28/28/5
f 29/29/6 30/30/6 31/31/6 32/32/6
f 33/33/4 34/34/4 35/35/4 36/36/4
f 37/37/4 38/38/4 39/39/4 40/40/4
f 41/41/2 42/42/2 43/43/2 44/44/2
f 45/45/5 46/46/5 47/47/5 48/48/5
f 49/49/1 50/50/1 51/51/1 52/52/1
f 53/53/1 54/54/1 55/55/1 56/56/1
f 57/57/4 58/58/4 59/59/4 60/60/4
f 61/61/5 62/62/5 63/63/5 64/64/5
f 65/65/4 66/66/4 67/67/4 68/68/4
f 69/69/4 70/70/4 71/71/4 72/72/4
f 73/73/1 74/74/1 75/75/1 76/76/1
f 77/77/6 78/78/6 35/35/6 79/79/6
f 80/80/3 81/81/3 19/19/3 18/18/3
f 82/82/6 83/83/6 84/84/6 85/85/6
f 86/86/5 87/87/5 88/88/5 89/89/5
f 90/90/4 91/91/4 75/75/4 79/79/4
f 92/92/7 93/93/7 94/94/8 95/95/7
f 96/96/4 97/97/4 98/98/4 99/99/4
f 100/100/6 101/101/6 102/102/6 103/103/6
f 104/104/1 105/105/1 106/106/1 107/107/1
f 108/108/5 109/109/5 95/95/5 94/94/5
f 110/110/4 111/111/4 112/112/4 113/113/4
f 114/114/3 115/115/3 93/93/3 116/116/3
f 117/117/7 118/118/7 116/116/7 93/93/7
f 67/67/7 95/95/7 119/119/7 120/120/7
f 121/121/7 120/120/7 118/118/7
f 122/122/6 123/123/6 124/124/9
f 125/125/1 124/124/1 120/120/1 119/119/1
f 126/126/4 127/127/4 128/128/4 129/129/4
f 130/130/2 26/131/2 131/132/2
f 132/133/1 130/130/1 131/132/1 133/134/1
f 134/135/4 135/136/4 136/137/4 137/138/4
f 138/139/3 139/140/3 140/141/3 141/142/3
f 142/143/3 143/144/3 144/145/3 145/146/3
f 146/147/3 147/148/3 148/149/3 149/150/3
f 150/151/4 151/152/4 152/153/4 153/154/4
f 46/155/2 143/156/2 47/157/2
f 154/158/2 140/159/2 139/160/2
f 155/161/4 156/162/4 117/117/4 157/163/4
f 158/164/4 159/165/4 121/121/4 160/166/4
f 161/167/2 10/168/2 148/169/2 162/170/2
f 163/171/2 147/172/2 140/159/2 154/158/2
f 164/173/2 14/174/2 11/175/2 165/176/2
f 166/177/2 167/178/2 168/179/2 169/180/2
f 170/181/4 171/182/4 172/183/4 173/184/4
f 174/185/2 175/186/2 176/187/2 177/188/2
f 178/189/2 179/190/2 180/191/2 181/192/2
f 92/92/7 182/193/10 117/117/7 93/93/7
f 117/117/7 156/162/7 121/121/7 118/118/7
f 67/67/7 183/194/7 92/92/7 95/95/7
f 121/121/7 68/68/8 67/67/7 120/120/7
f 22/22/2 178/189/2 181/192/2 23/23/2
f 7/7/2 169/180/2 178/189/2 22/22/2
f 169/180/2 168/179/2 179/190/2 178/189/2
f 42/42/2 174/185/2 177/188/2 43/43/2
f 23/23/2 181/192/2 174/185/2 42/42/2
f 181/192/2 180/191/2 175/186/2 174/185/2
f 91/91/4 170/181/4 173/184/4 75/75/4
f 184/195/4 185/196/4 170/181/4 91/91/4
f 185/196/4 186/197/4 171/182/4 170/181/4
f 6/6/2 166/177/2 169/180/2 7/7/2
f 102/198/2 101/199/2 166/177/2 6/6/2
f 101/199/2 31/200/2 167/178/2 166/177/2
f 167/178/2 164/173/2 165/176/2 168/179/2
f 31/200/2 30/201/2 164/173/2 167/178/2
f 30/201/2 15/202/2 14/174/2 164/173/2
f 175/186/2 163/171/2 154/158/2 176/187/2
f 180/191/2 162/170/2 163/171/2 175/186/2
f 162/170/2 148/169/2 147/172/2 163/171/2
f 179/190/2 161/167/2 162/170/2 180/191/2
f 168/179/2 165/176/2 161/167/2 179/190/2
f 165/176/2 11/175/2 10/168/2 161/167/2
f 38/38/4 158/164/4 160/166/4 39/39/4
f 19/19/4 64/64/4 158/164/4 38/38/4
f 64/64/4 63/63/4 159/165/4 158/164/4
f 127/127/4 155/161/4 157/163/4 128/128/4
f 39/39/4 160/166/4 155/161/4 127/127/4
f 160/166/4 121/121/4 156/162/4 155/161/4
f 97/97/4 150/151/4 153/154/4 98/98/4
f 128/128/4 157/163/4 150/151/4 97/97/4
f 157/163/4 117/117/4 151/152/4 150/151/4
f 187/203/3 146/147/3 149/150/3 188/204/3
f 189/205/3 141/142/3 146/147/3 187/203/3
f 141/142/3 140/141/3 147/148/3 146/147/3
f 190/206/3 142/143/3 145/146/3 191/207/3
f 192/208/3 48/48/3 142/143/3 190/206/3
f 48/48/3 47/47/3 143/144/3 142/143/3
f 193/209/3 138/139/3 141/142/3 189/205/3
f 191/207/3 145/146/3 138/139/3 193/209/3
f 145/146/3 144/145/3 139/140/3 138/139/3
f 151/152/4 134/135/4 137/138/4 152/153/4
f 117/117/4 182/193/4 134/135/4 151/152/4
f 182/193/4 92/92/4 135/136/4 134/135/4
f 135/136/1 132/133/1 133/134/1 136/137/1
f 92/92/1 107/107/1 132/133/1 135/136/1
f 107/107/1 106/106/1 130/130/1 132/133/1
f 193/210/4 126/126/4 129/129/4 191/211/4
f 189/212/4 40/40/4 126/126/4 193/210/4
f 40/40/4 39/39/4 127/127/4 126/126/4
f 109/109/1 125/125/1 119/119/1 95/95/1
f 112/112/1 111/111/1 125/125/1 109/109/1
f 111/111/1 122/122/1 124/124/1 125/125/1
f 124/124/9 123/123/6 194/213/6
f 123/123/6 195/214/6 194/213/6
f 120/120/7 124/124/9 194/213/6 118/118/7
f 194/213/3 114/114/3 116/116/3 118/118/3
f 195/214/3 196/215/3 114/114/3 194/213/3
f 196/215/3 197/216/3 115/115/3 114/114/3
f 196/215/4 110/110/4 113/113/4 197/216/4
f 195/214/4 123/123/4 110/110/4 196/215/4
f 123/123/4 122/122/4 111/111/4 110/110/4
f 115/115/5 108/108/5 94/94/5 93/93/5
f 197/216/5 113/113/5 108/108/5 115/115/5
f 113/113/5 112/112/5 109/109/5 108/108/5
f 183/194/1 104/104/1 107/107/1 92/92/1
f 67/67/1 52/52/1 104/104/1 183/194/1
f 52/52/1 51/51/1 105/105/1 104/104/1
f 198/217/6 100/100/6 103/103/6 184/218/6
f 199/219/6 32/32/6 100/100/6 198/217/6
f 32/32/6 31/31/6 101/101/6 100/100/6
f 190/220/4 96/96/4 99/99/4 192/221/4
f 191/211/4 129/129/4 96/96/4 190/220/4
f 129/129/4 128/128/4 97/97/4 96/96/4
f 51/51/2 44/44/2 105/105/2
f 34/34/4 90/90/4 79/79/4 35/35/4
f 199/222/4 198/223/4 90/90/4 34/34/4
f 198/223/4 184/195/4 91/91/4 90/90/4
f 153/224/5 86/86/5 89/89/5 98/225/5
f 152/226/5 28/28/5 86/86/5 153/224/5
f 28/28/5 27/27/5 87/87/5 86/86/5
f 185/227/6 82/82/6 85/85/6 186/197/6
f 184/218/6 103/103/6 82/82/6 185/227/6
f 103/103/6 102/102/6 83/83/6 82/82/6
f 78/78/3 80/80/3 18/18/3 35/35/3
f 200/228/3 201/229/3 80/80/3 78/78/3
f 201/229/3 202/230/3 81/81/3 80/80/3
f 74/74/6 77/77/6 79/79/6 75/75/6
f 203/231/6 204/232/6 77/77/6 74/74/6
f 204/232/6 200/228/6 78/78/6 77/77/6
f 62/62/1 73/73/1 76/76/1 63/63/1
f 71/71/1 70/70/1 73/73/1 62/62/1
f 70/70/1 203/231/1 74/74/1 73/73/1
f 201/229/4 69/69/4 72/72/4 202/230/4
f 200/228/4 204/232/4 69/69/4 201/229/4
f 204/232/4 203/231/4 70/70/4 69/69/4
f 159/165/4 65/65/4 68/68/4 121/121/4
f 63/63/4 60/60/4 65/65/4 159/165/4
f 60/60/4 59/59/4 66/66/4 65/65/4
f 81/81/5 61/61/5 64/64/5 19/19/5
f 202/230/5 72/72/5 61/61/5 81/81/5
f 72/72/5 71/71/5 62/62/5 61/61/5
f 76/76/4 57/57/4 60/60/4 63/63/4
f 75/75/4 173/184/4 57/57/4 76/76/4
f 173/184/4 172/183/4 58/58/4 57/57/4
f 58/58/1 53/53/1 56/56/1 59/59/1
f 172/183/1 4/4/1 53/53/1 58/58/1
f 4/4/1 3/3/1 54/54/1 53/53/1
f 66/66/1 49/49/1 52/52/1 67/67/1
f 59/59/1 56/56/1 49/49/1 66/66/1
f 56/56/1 55/55/1 50/50/1 49/49/1
f 99/233/5 45/45/5 48/48/5 192/208/5
f 98/225/5 89/89/5 45/45/5 99/233/5
f 89/89/5 88/88/5 46/46/5 45/45/5
f 50/50/2 41/41/2 44/44/2 51/51/2
f 55/55/2 24/24/2 41/41/2 50/50/2
f 24/24/2 23/23/2 42/42/2 41/41/2
f 187/234/4 37/37/4 40/40/4 189/212/4
f 188/235/4 20/20/4 37/37/4 187/234/4
f 20/20/4 19/19/4 38/38/4 37/37/4
f 205/236/4 33/33/4 36/36/4 206/237/4
f 207/238/4 208/239/4 33/33/4 205/236/4
f 208/239/4 199/222/4 34/34/4 33/33/4
f 208/240/6 29/29/6 32/32/6 199/219/6
f 207/241/6 16/242/6 29/29/6 208/240/6
f 16/242/6 15/243/6 30/30/6 29/29/6
f 137/244/5 25/25/5 28/28/5 152/226/5
f 136/137/5 133/134/5 25/25/5 137/244/5
f 133/134/5 131/132/5 26/26/5 25/25/5
f 54/54/2 21/21/2 24/24/2 55/55/2
f 3/3/2 8/8/2 21/21/2 54/54/2
f 8/8/2 7/7/2 22/22/2 21/21/2
f 209/245/4 17/17/4 20/20/4 188/235/4
f 206/237/4 36/36/4 17/17/4 209/245/4
f 36/36/4 35/35/4 18/18/4 17/17/4
f 205/246/3 13/13/3 16/16/3 207/247/3
f 206/248/3 12/12/3 13/13/3 205/246/3
f 12/12/3 11/11/3 14/14/3 13/13/3
f 209/249/3 9/9/3 12/12/3 206/248/3
f 188/204/3 149/150/3 9/9/3 209/249/3
f 149/150/3 148/149/3 10/10/3 9/9/3
f 2/2/2 5/5/2 8/8/2 3/3/2
f 84/84/2 83/250/2 5/5/2 2/2/2
f 83/250/2 102/198/2 6/6/2 5/5/2
f 171/182/1 1/1/1 4/4/1 172/183/1
f 186/197/1 85/85/1 1/1/1 171/182/1
f 85/85/1 84/84/1 2/2/1 1/1/1
