# Blender v2.90.1 OBJ File: ''
# www.blender.org
o Cube.003_Cube.001
v -0.096299 -0.215381 -1.799396
v 0.096299 -0.215381 -1.799396
v 0.096299 -0.215381 -1.752436
v -0.096299 -0.215381 -1.752436
v 0.096299 -0.472010 -1.752436
v -0.096299 -0.472010 -1.752436
v -0.096299 -0.472010 -1.650466
v 0.096299 -0.472010 -1.650466
v -0.096299 -0.423434 -1.752436
v -0.096299 -0.423434 -1.650466
v 0.096299 -0.423434 -1.752436
v 0.096299 -0.423434 -1.650466
v -0.096299 -0.423434 -1.799396
v 0.096299 -0.423434 -1.799396
v -0.096299 -0.472010 -1.799396
v 0.096299 -0.472010 -1.799396
v 0.096299 -0.374821 -1.596241
v -0.096299 -0.374821 -1.596241
v 0.096299 -0.374821 -1.541899
v 0.096299 -0.423398 -1.596241
v 0.096299 -0.423398 -1.541899
v -0.096299 -0.374821 -1.541899
v -0.096299 -0.423398 -1.541899
v 0.096299 -0.252644 -1.541899
v -0.096299 -0.252644 -1.541899
v 0.050947 -0.066021 -1.480025
v 0.035873 -0.066021 -1.480025
v 0.035873 -0.066021 -1.573395
v 0.066021 -0.066021 -1.573395
v 0.066021 -0.066021 -1.526710
v 0.096299 -0.252644 -1.596241
v -0.096299 -0.423398 -1.596241
v -0.096299 -0.252644 -1.596241
v -0.096299 -0.060046 -1.596241
v -0.096299 -0.060046 -1.541899
v 0.096299 -0.060046 -1.596241
v 0.096299 -0.060046 -1.881158
v -0.096299 -0.060046 -1.881158
v -0.096299 -0.252644 -1.881158
v 0.096299 -0.252644 -1.881158
v -0.098630 -0.057715 -1.264522
v -0.098630 -0.254975 -1.264522
v -0.098630 -0.254975 0.410938
v -0.098630 -0.057715 0.410938
v 0.098630 -0.057715 -1.264522
v 0.098630 -0.254975 -1.264522
v 0.098630 -0.057715 0.410938
v 0.098630 -0.254975 0.410938
v 0.096299 -0.060046 -1.036530
v 0.096299 -0.252644 -1.036530
v 0.096299 -0.060046 -1.541899
v -0.096299 -0.060046 -1.036530
v -0.096299 -0.252644 -1.036530
v 0.096299 -0.252644 -1.881158
v 0.096299 -0.060046 -1.881158
v 0.096299 -0.211818 -2.021545
v -0.096299 -0.211818 -2.021545
v -0.096299 -0.060046 -1.881158
v 0.096299 -0.060046 -1.881158
v 0.096299 -0.211814 -3.205928
v -0.096299 -0.211814 -3.205928
v -0.096299 -0.211818 -2.613737
v 0.096299 -0.211818 -2.613737
v 0.096299 -0.252644 -1.881158
v 0.096299 -0.060046 -1.881158
v -0.096299 -0.252644 -1.881158
v -0.096299 -0.060046 -1.881158
v -0.096299 -0.252644 -1.881158
v 0.096299 -0.252644 -1.881158
v -0.096299 -0.252644 -1.881158
v -0.096299 -0.060046 -1.881158
v -0.096299 -0.060046 -1.881158
v 0.096299 -0.060046 -1.881158
v -0.096299 -0.060046 -1.881158
v 0.096299 -0.060046 -1.881158
v 0.096299 -0.252644 -1.881158
v -0.096299 -0.252644 -1.881158
v 0.096299 -0.252644 -1.881158
v -0.096299 -0.404416 -2.021545
v 0.096299 -0.404416 -2.021545
v -0.096299 -0.252644 -1.881158
v 0.096299 -0.404412 -3.205928
v -0.096299 -0.404412 -3.205928
v 0.096299 -0.404416 -2.613737
v 0.091477 -0.550331 -2.340642
v -0.101121 -0.550331 -2.340642
v -0.096299 -1.022901 -2.613737
v 0.096299 -1.022901 -2.613737
v -0.096299 -1.022901 -3.205928
v 0.096299 -1.022901 -3.205928
v -0.096299 -0.404416 -2.613737
v -0.027685 -0.066021 -1.573395
v -0.027685 -0.066021 -1.792418
v 0.004094 -0.066021 -1.792418
v 0.035873 -0.066021 -1.792418
v 0.004094 -0.066021 -1.480025
v -0.027685 -0.066021 -1.480025
v -0.046853 -0.066021 -1.480025
v -0.066021 -0.066021 -1.526710
v -0.066021 -0.066021 -1.573395
v -0.066021 -0.066021 -1.682907
v -0.046853 -0.066021 -1.792418
v 0.050947 -0.066021 -1.792418
v 0.066021 -0.066021 -1.682907
vt 0.125000 0.584332
vt 0.375000 0.584332
vt 0.375000 0.584332
vt 0.125000 0.584332
vt 0.375000 0.584332
vt 0.125000 0.584332
vt 0.125000 0.584332
vt 0.375000 0.584332
vt 0.375000 0.165668
vt 0.375000 0.165668
vt 0.375000 0.165668
vt 0.375000 0.165668
vt 0.125000 0.584332
vt 0.375000 0.584332
vt 0.375000 0.584332
vt 0.125000 0.584332
vt 0.125000 0.584332
vt 0.375000 0.584332
vt 0.125000 0.584332
vt 0.375000 0.584332
vt 0.375000 0.584332
vt 0.125000 0.584332
vt 0.375000 0.600417
vt 0.375000 0.584332
vt 0.375000 0.600417
vt 0.125000 0.600417
vt 0.125000 0.600417
vt 0.375000 0.600417
vt 0.125000 0.600417
vt 0.346460 0.521786
vt 0.317919 0.521786
vt 0.317919 0.515274
vt 0.375000 0.515274
vt 0.375000 0.518530
vt 0.375000 0.584332
vt 0.375000 0.165668
vt 0.375000 0.149583
vt 0.375000 0.149583
vt 0.375000 0.165668
vt 0.125000 0.584332
vt 0.625000 0.165668
vt 0.625000 0.149583
vt 0.875000 0.584332
vt 0.625000 0.584332
vt 0.625000 0.500000
vt 0.875000 0.500000
vt 0.125000 0.584332
vt 0.125000 0.500000
vt 0.375000 0.500000
vt 0.625000 0.250000
vt 0.375000 0.250000
vt 0.375000 0.000000
vt 0.625000 0.000000
vt 0.625000 0.500000
vt 0.375000 0.500000
vt 0.625000 0.750000
vt 0.375000 0.750000
vt 0.625000 1.000000
vt 0.375000 1.000000
vt 0.125000 0.750000
vt 0.125000 0.500000
vt 0.875000 0.750000
vt 0.875000 0.500000
vt 0.625000 0.250000
vt 0.375000 0.250000
vt 0.625000 0.750000
vt 0.375000 0.750000
vt 0.625000 0.600417
vt 0.625000 1.000000
vt 0.375000 1.000000
vt 0.375000 0.500000
vt 0.625000 0.500000
vt 0.125000 0.750000
vt 0.875000 0.750000
vt 0.875000 0.600417
vt 0.625000 0.500000
vt 0.875000 0.500000
vt 0.875000 0.500000
vt 0.625000 0.500000
vt 0.625000 0.500000
vt 0.875000 0.500000
vt 0.875000 0.500000
vt 0.625000 0.500000
vt 0.375000 0.500000
vt 0.625000 0.500000
vt 0.125000 0.500000
vt 0.875000 0.500000
vt 0.625000 0.250000
vt 0.375000 0.250000
vt 0.125000 0.500000
vt 0.375000 0.500000
vt 0.125000 0.500000
vt 0.875000 0.500000
vt 0.625000 0.250000
vt 0.375000 0.250000
vt 0.875000 0.500000
vt 0.625000 0.500000
vt 0.875000 0.500000
vt 0.625000 0.500000
vt 0.625000 0.250000
vt 0.375000 0.250000
vt 0.375000 0.500000
vt 0.625000 0.250000
vt 0.375000 0.250000
vt 0.375000 0.500000
vt 0.125000 0.500000
vt 0.125000 0.500000
vt 0.375000 0.500000
vt 0.125000 0.500000
vt 0.625000 0.250000
vt 0.375000 0.250000
vt 0.375000 0.500000
vt 0.375000 0.250000
vt 0.625000 0.250000
vt 0.625000 0.250000
vt 0.375000 0.250000
vt 0.375000 0.500000
vt 0.375000 0.500000
vt 0.125000 0.500000
vt 0.125000 0.500000
vt 0.375000 0.500000
vt 0.125000 0.500000
vt 0.375000 0.500000
vt 0.375000 0.000000
vt 0.625000 0.000000
vt 0.375000 0.250000
vt 0.375000 0.250000
vt 0.375000 0.165668
vt 0.375000 0.165668
vt 0.625000 0.250000
vt 0.375000 0.250000
vt 0.197583 0.515274
vt 0.197583 0.500000
vt 0.257751 0.500000
vt 0.317919 0.500000
vt 0.257751 0.521786
vt 0.197583 0.521786
vt 0.375000 0.165668
vt 0.375000 0.149583
vt 0.375000 0.250000
vt 0.375000 0.165668
vt 0.375000 0.165668
vt 0.161292 0.521786
vt 0.125000 0.518530
vt 0.125000 0.515274
vt 0.125000 0.507637
vt 0.161292 0.500000
vt 0.346460 0.500000
vt 0.375000 0.507637
vn 0.0000 -1.0000 0.0000
vn 0.0000 1.0000 0.0000
vn 1.0000 0.0000 0.0000
vn -1.0000 0.0000 0.0000
vn 0.0000 -0.0000 1.0000
vn 0.0000 -0.7446 0.6675
vn 0.0000 0.0000 -1.0000
vn 0.0000 0.7446 -0.6675
vn 0.0000 0.6790 -0.7341
vn 0.0000 -0.6790 0.7341
vn 0.0000 -0.5004 0.8658
vn 0.9998 0.0000 0.0177
vn -0.9995 0.0330 0.0000
vn 0.0000 -0.9094 0.4159
vn 0.9995 -0.0330 0.0000
vn -0.9998 0.0000 -0.0177
s 1
f 1/1/1 2/2/1 3/3/1 4/4/1
f 5/5/2 6/6/2 7/7/2 8/8/2
f 6/9/3 9/10/3 10/11/3 7/12/3
f 9/13/1 11/14/1 12/15/1 10/16/1
f 11/14/4 5/5/4 8/8/4 12/15/4
f 2/2/5 1/1/5 13/17/5 14/18/5
f 14/18/5 13/17/5 15/19/5 16/20/5
f 10/16/6 12/15/6 17/21/6 18/22/6
f 16/20/2 15/19/2 6/6/2 5/5/2
f 19/23/4 17/21/4 20/24/4 21/25/4
f 22/26/7 19/23/7 21/25/7 23/27/7
f 23/27/5 21/25/5 24/28/5 25/29/5
f 26/30/1 27/31/1 28/32/1 29/33/1 30/34/1
f 21/25/3 20/24/3 31/35/3 24/28/3
f 32/36/4 23/37/4 25/38/4 33/39/4
f 8/8/8 7/7/8 32/40/8 20/24/8
f 34/41/4 33/39/4 25/38/4 35/42/4
f 19/23/1 22/26/1 18/22/1 17/21/1
f 34/43/2 36/44/2 37/45/2 38/46/2
f 31/35/1 33/47/1 39/48/1 40/49/1
f 41/50/4 42/51/4 43/52/4 44/53/4
f 45/54/7 46/55/7 42/51/7 41/50/7
f 47/56/3 48/57/3 46/55/3 45/54/3
f 44/58/5 43/59/5 48/57/5 47/56/5
f 48/57/1 43/60/1 42/61/1 46/55/1
f 44/62/2 47/56/2 45/54/2 41/63/2
f 38/64/4 39/65/4 33/39/4 34/41/4
f 49/66/3 50/67/3 24/28/3 51/68/3
f 52/69/5 53/70/5 50/67/5 49/66/5
f 37/45/5 54/71/5 55/72/5
f 50/67/1 53/73/1 25/29/1 24/28/1
f 52/74/2 49/66/2 51/68/2 35/75/2
f 56/76/9 57/77/9 58/78/9 59/79/9
f 60/80/2 61/81/2 62/82/2 63/83/2
f 55/72/5 64/84/5 65/85/5
f 40/49/5 66/86/5 54/71/5
f 38/46/5 55/72/5 67/87/5
f 39/65/5 67/88/5 66/89/5
f 64/84/5 68/90/5 69/91/5
f 54/71/5 70/92/5 64/84/5
f 67/87/5 65/85/5 71/93/5
f 66/89/5 71/94/5 70/95/5
f 72/96/5 73/97/5 74/98/5
f 71/93/5 75/99/5 72/96/5
f 70/95/5 72/100/5 68/101/5
f 65/85/5 69/91/5 75/99/5
f 73/97/5 76/102/5 59/79/5
f 68/101/5 74/103/5 77/104/5
f 75/99/5 78/105/5 73/97/5
f 69/91/5 77/106/5 78/105/5
f 79/107/10 80/108/10 76/102/10 81/109/10
f 78/105/5 81/109/5 76/102/5
f 74/98/5 59/79/5 58/78/5
f 77/104/5 58/110/5 81/111/5
f 60/80/7 82/112/7 83/113/7 61/114/7
f 81/111/4 57/115/4 79/116/4
f 76/102/3 56/76/3 59/79/3
f 82/112/3 60/80/3 63/83/3 84/117/3
f 85/118/11 86/119/11 87/120/11 88/121/11
f 89/122/1 90/123/1 88/121/1 87/120/1
f 88/121/3 90/123/3 82/112/3 84/117/3
f 35/42/4 25/38/4 53/124/4 52/125/4
f 84/117/12 85/118/12 88/121/12
f 91/126/13 86/127/13 79/116/13
f 63/83/2 62/82/2 57/77/2 56/76/2
f 35/75/2 51/68/2 36/44/2 34/43/2
f 20/24/7 32/40/7 33/47/7 31/35/7
f 51/68/3 24/28/3 31/35/3 36/44/3
f 15/128/3 13/129/3 9/10/3 6/9/3
f 61/114/4 83/113/4 91/126/4 62/130/4
f 84/117/3 63/83/3 56/76/3 80/108/3
f 62/130/4 91/126/4 79/116/4 57/115/4
f 36/44/3 31/35/3 40/49/3 37/45/3
f 90/123/7 89/131/7 83/113/7 82/112/7
f 28/32/1 92/132/1 93/133/1 94/134/1 95/135/1
f 27/31/1 96/136/1 97/137/1 92/132/1 28/32/1
f 20/24/4 12/15/4 8/8/4
f 32/36/3 10/11/3 18/138/3
f 14/18/4 16/20/4 5/5/4 11/14/4
f 3/3/4 2/2/4 14/18/4 11/14/4
f 18/138/3 22/139/3 23/37/3 32/36/3
f 89/131/4 87/140/4 91/126/4 83/113/4
f 79/107/14 86/119/14 85/118/14 80/108/14
f 37/45/5 40/49/5 54/71/5
f 55/72/5 54/71/5 64/84/5
f 40/49/5 39/48/5 66/86/5
f 38/46/5 37/45/5 55/72/5
f 39/65/5 38/64/5 67/88/5
f 64/84/5 70/92/5 68/90/5
f 54/71/5 66/86/5 70/92/5
f 67/87/5 55/72/5 65/85/5
f 66/89/5 67/88/5 71/94/5
f 72/96/5 75/99/5 73/97/5
f 71/93/5 65/85/5 75/99/5
f 70/95/5 71/94/5 72/100/5
f 65/85/5 64/84/5 69/91/5
f 73/97/5 78/105/5 76/102/5
f 68/101/5 72/100/5 74/103/5
f 75/99/5 69/91/5 78/105/5
f 69/91/5 68/90/5 77/106/5
f 78/105/5 77/106/5 81/109/5
f 74/98/5 73/97/5 59/79/5
f 77/104/5 74/103/5 58/110/5
f 81/111/4 58/110/4 57/115/4
f 76/102/3 80/108/3 56/76/3
f 84/117/15 80/108/15 85/118/15
f 91/126/16 87/140/16 86/127/16
f 20/24/4 17/21/4 12/15/4
f 32/36/3 7/12/3 10/11/3
f 1/141/3 4/142/3 9/10/3 13/129/3
f 4/4/7 3/3/7 11/14/7 9/13/7
f 97/137/1 98/143/1 99/144/1 100/145/1 92/132/1
f 92/132/1 100/145/1 101/146/1 102/147/1 93/133/1
f 29/33/1 28/32/1 95/135/1 103/148/1 104/149/1
