# Blender v2.90.1 OBJ File: ''
# www.blender.org
o Uzi_Cube.002
v 0.043054 -0.207186 0.288165
v -0.037464 -0.207186 0.227389
v 0.043054 -0.207186 0.227389
v 0.146577 -1.273906 -0.280744
v -0.146577 -0.108661 -0.280744
v 0.146577 -0.108661 -0.280744
v -0.146577 -1.273906 -0.057583
v 0.146577 -1.273906 -0.057583
v 0.146577 -0.207186 0.659556
v 0.043054 -0.207186 0.586573
v 0.146577 -0.207186 0.586573
v -0.146577 0.207186 0.659556
v -0.037464 0.207186 0.586573
v -0.146577 0.207186 0.586573
v 0.146577 -0.108661 -0.057583
v 0.146577 0.207186 0.027455
v 0.146577 -0.207186 -0.492445
v 0.146577 0.207186 -0.492445
v 0.146577 -0.207186 0.027455
v -0.146577 -0.207186 -0.492445
v -0.146577 0.207186 0.027455
v -0.146577 0.207186 -0.492445
v -0.146577 0.180222 0.115966
v 0.146577 0.180222 0.027455
v -0.146577 0.180222 0.027455
v 0.146577 -0.180222 0.115966
v -0.146577 -0.180222 0.027455
v 0.146577 -0.180222 0.027455
v 0.146577 0.180222 0.115966
v -0.146577 -0.180222 0.115966
v -0.146577 0.207186 0.288165
v -0.146577 0.043949 0.481661
v -0.146577 0.207186 0.481661
v 0.146577 0.356592 0.288165
v 0.043054 0.207186 0.288165
v 0.146577 0.207186 0.288165
v -0.146577 -0.108661 -0.057583
v 0.043054 0.355984 0.481661
v 0.146577 0.207186 0.481661
v 0.043054 0.207186 0.481661
v -0.037464 0.355984 0.481661
v -0.037464 0.207186 0.481661
v 0.146577 -0.207186 0.227389
v 0.043054 -0.207186 0.163524
v 0.146577 -0.207186 0.163524
v -0.037464 0.355984 0.586573
v -0.146577 0.207186 0.227389
v -0.146577 0.043949 0.288165
v -0.146577 0.356592 0.288165
v -0.037464 0.356592 0.227389
v -0.146577 0.356592 0.227389
v -0.037464 0.207186 0.227389
v 0.146577 0.355984 0.481661
v 0.146577 0.207186 0.586573
v 0.146577 0.402960 -0.659556
v 0.146577 0.207186 -0.588855
v 0.146577 0.207186 -0.659556
v 0.043054 -0.207186 0.659556
v -0.037464 -0.207186 0.586573
v -0.146577 -0.207186 0.027455
v 0.043054 0.355984 0.586573
v -0.146577 0.402960 -0.492445
v -0.146577 0.207186 -0.588855
v 0.146577 0.043949 0.481661
v -0.146577 0.402960 -0.659556
v -0.146577 0.207186 -0.659556
v 0.146577 0.207186 -0.735627
v -0.146577 -0.207186 -0.735627
v -0.146577 0.207186 -0.735627
v -0.146577 -0.816269 -0.659556
v 0.146577 -0.207186 -0.659556
v -0.146577 -0.207186 -0.659556
v -0.037464 -0.207186 0.163524
v -0.146577 -0.816269 -0.735627
v 0.146577 -0.816269 -0.659556
v 0.146577 -0.816269 -0.735627
v 0.146577 -0.207186 -0.735627
v 0.146577 -0.381210 -0.492445
v -0.146577 -0.381210 -0.588855
v 0.146577 -0.381210 -0.588855
v 0.146577 -0.381210 -0.659556
v 0.146577 -0.207186 -0.588855
v 0.043054 -0.207186 0.481661
v 0.146577 -0.207186 0.481661
v -0.146577 -0.511728 -0.659556
v -0.146577 -0.381210 -0.659556
v -0.146577 0.402960 -0.588855
v 0.146577 0.402960 -0.588855
v 0.146577 -0.511728 -0.588855
v 0.146577 -0.511728 -0.659556
v 0.146577 0.043949 0.586573
v 0.146577 -0.043949 0.481661
v -0.146577 -0.511728 -0.588855
v -0.146577 0.207186 0.163524
v -0.037464 0.207186 0.115966
v -0.146577 0.207186 0.115966
v -0.146577 -0.452513 0.163524
v -0.037464 -0.423307 0.163524
v -0.146577 -0.423307 0.163524
v 0.146577 0.207186 0.163524
v 0.146577 0.043949 0.115966
v 0.146577 0.207186 0.115966
v 0.146577 -0.043949 0.586573
v 0.146577 -0.452513 0.163524
v 0.043054 -0.452513 0.115966
v 0.146577 -0.452513 0.115966
v 0.146577 -0.452513 -0.081721
v 0.146577 -0.423307 0.115966
v 0.146577 -0.423307 0.163524
v -0.146577 -0.452513 0.115966
v -0.146577 -0.423307 0.115966
v -0.146577 -0.207186 0.163524
v -0.146577 -0.207186 0.115966
v 0.146577 -0.207186 0.115966
v 0.043054 -0.207186 0.115966
v 0.043054 0.207186 0.586573
v -0.146577 -0.207186 0.481661
v -0.037464 -0.207186 0.481661
v -0.146577 -0.423307 -0.081721
v 0.146577 -0.423307 -0.081721
v 0.043054 -0.423307 0.115966
v 0.146577 0.355984 0.586573
v 0.146577 0.043949 0.163524
v 0.146577 -0.043949 0.115966
v -0.146577 0.043949 0.227389
v -0.146577 -0.043949 0.288165
v -0.146577 0.043949 0.586573
v -0.146577 -0.043949 0.659556
v -0.146577 0.043949 0.659556
v -0.146577 -0.043949 0.481661
v 0.146577 0.043949 0.288165
v 0.146577 0.043949 0.659556
v 0.146577 -0.043949 0.659556
v 0.146577 0.043949 0.659556
v 0.146577 -0.043949 0.659556
v 0.146577 -0.207186 0.288165
v 0.043054 -0.452513 0.163524
v -0.037464 -0.452513 0.115966
v -0.037464 0.207186 0.288165
v -0.146577 -0.043949 0.586573
v -0.146577 -0.043949 0.227389
v -0.146577 -0.207186 0.288165
v 0.146577 -0.043949 0.163524
v 0.146577 -0.043949 0.288165
v -0.146577 0.043949 0.659556
v -0.037464 -0.043949 0.659556
v -0.037464 0.043949 0.659556
v -0.037464 -0.043949 0.933946
v 0.043054 -0.043949 0.659556
v 0.043054 -0.043949 0.659556
v -0.037464 0.043949 0.659556
v -0.146577 -0.043949 0.659556
v 0.043054 0.043949 0.659556
v 0.043054 0.043949 0.659556
v -0.037464 -0.452513 -0.081721
v -0.146577 -0.207186 0.586573
v -0.037464 -0.423307 -0.081721
v -0.037464 -0.452513 0.163524
v 0.043054 -0.423307 0.163524
v -0.037464 0.207186 0.163524
v 0.043054 0.207186 0.115966
v 0.043054 0.207186 0.227389
v -0.037464 -0.207186 0.288165
v -0.037464 0.356592 0.288165
v -0.037464 0.207186 0.659556
v -0.037464 -0.207186 0.659556
v 0.043054 -0.043949 0.933946
v 0.043054 0.207186 0.659556
v 0.146577 0.207186 0.659556
v 0.043054 0.043949 0.933946
v 0.043054 0.356592 0.288165
v 0.146577 0.356592 0.227389
v 0.043054 0.356592 0.227389
v 0.146577 0.207186 0.227389
v 0.043054 0.207186 0.163524
v 0.043054 -0.452513 -0.081721
v 0.043054 -0.423307 -0.081721
v -0.037464 -0.423307 0.115966
v -0.037464 -0.043949 0.659556
v -0.037464 0.043949 0.933946
v -0.037464 -0.207186 0.115966
v -0.146577 -0.207186 0.227389
v -0.146577 -0.043949 0.163524
v 0.146577 -0.043949 0.227389
v -0.146577 -0.043949 0.115966
v -0.146577 0.043949 0.115966
v -0.146577 0.043949 0.163524
v 0.146577 0.043949 0.227389
v -0.146577 -0.207186 0.659556
v -0.146577 -0.452513 -0.081721
v -0.146577 -0.207186 -0.588855
v 0.146577 0.402960 -0.492445
v -0.146577 -0.381210 -0.492445
v -0.146577 -1.273906 -0.280744
vt 0.625000 0.250000
vt 0.375000 0.250000
vt 0.375000 0.236601
vt 0.625000 0.236601
vt 0.625000 1.000000
vt 0.375000 1.000000
vt 0.375000 0.750000
vt 0.625000 0.750000
vt 0.375000 0.750000
vt 0.286716 0.750000
vt 0.286716 0.736168
vt 0.375000 0.736168
vt 0.875000 0.750000
vt 0.781949 0.750000
vt 0.781949 0.736168
vt 0.875000 0.736168
vt 0.375000 0.500000
vt 0.625000 0.500000
vt 0.625000 0.630203
vt 0.375000 0.630203
vt 0.375000 0.531671
vt 0.625000 0.531671
vt 0.125000 0.630203
vt 0.125000 0.531671
vt 0.875000 0.630203
vt 0.875000 0.531671
vt 0.875000 0.646978
vt 0.625000 0.646978
vt 0.625000 0.630203
vt 0.875000 0.630203
vt 0.375000 0.646978
vt 0.125000 0.646978
vt 0.125000 0.630203
vt 0.375000 0.630203
vt 0.625000 0.119797
vt 0.375000 0.119797
vt 0.375000 0.103022
vt 0.625000 0.103022
vt 0.625000 0.070387
vt 0.526515 0.070387
vt 0.526515 0.033715
vt 0.625000 0.033715
vt 0.625000 0.679613
vt 0.713284 0.679613
vt 0.713284 0.679613
vt 0.625000 0.679613
vt 0.375000 0.250000
vt 0.625000 0.250000
vt 0.625000 0.750000
vt 0.526515 0.750000
vt 0.526515 0.736168
vt 0.625000 0.736168
vt 0.781949 0.716285
vt 0.713284 0.716285
vt 0.713284 0.716285
vt 0.781949 0.716285
vt 0.375000 0.668095
vt 0.286716 0.668095
vt 0.286716 0.655991
vt 0.375000 0.655991
vt 0.781949 0.736168
vt 0.625000 0.081905
vt 0.526515 0.081905
vt 0.875000 0.679613
vt 0.781949 0.679613
vt 0.781949 0.668095
vt 0.875000 0.668095
vt 0.781949 0.668095
vt 0.875000 0.668095
vt 0.625000 0.716285
vt 0.625000 0.736168
vt 0.625000 0.716285
vt 0.625000 0.070387
vt 0.625000 0.081905
vt 0.625000 0.500000
vt 0.625000 0.513399
vt 0.625000 0.513399
vt 0.625000 0.500000
vt 0.713284 0.736168
vt 0.218051 0.750000
vt 0.218051 0.736168
vt 0.625000 0.218329
vt 0.375000 0.218329
vt 0.375000 0.119797
vt 0.625000 0.119797
vt 0.625000 0.218329
vt 0.625000 0.236601
vt 0.526515 0.716285
vt 0.625000 0.250000
vt 0.625000 0.500000
vt 0.375000 0.500000
vt 0.375000 0.250000
vt 0.625000 0.250000
vt 0.125000 0.500000
vt 0.375000 0.500000
vt 0.375000 0.500000
vt 0.125000 0.500000
vt 0.218051 0.668095
vt 0.218051 0.655991
vt 0.125000 0.500000
vt 0.375000 0.500000
vt 0.375000 0.250000
vt 0.375000 0.250000
vt 0.375000 0.531671
vt 0.125000 0.531671
vt 0.125000 0.513399
vt 0.375000 0.513399
vt 0.375000 0.500000
vt 0.125000 0.500000
vt 0.375000 0.513399
vt 0.286716 0.716285
vt 0.375000 0.716285
vt 0.875000 0.716285
vt 0.625000 1.000000
vt 0.526515 1.000000
vt 0.526515 0.906949
vt 0.625000 0.906949
vt 0.375000 0.250000
vt 0.375000 0.236601
vt 0.375000 0.236601
vt 0.375000 0.250000
vt 0.625000 0.103022
vt 0.526515 0.103022
vt 0.526515 0.094009
vt 0.625000 0.094009
vt 0.875000 0.513399
vt 0.875000 0.500000
vt 0.375000 0.000000
vt 0.625000 0.000000
vt 0.375000 0.513399
vt 0.125000 0.513399
vt 0.125000 0.500000
vt 0.375000 0.500000
vt 0.473485 0.736168
vt 0.473485 0.716285
vt 0.875000 0.655991
vt 0.781949 0.655991
vt 0.781949 0.646978
vt 0.875000 0.646978
vt 0.125000 0.655991
vt 0.218051 0.655991
vt 0.218051 0.655991
vt 0.125000 0.655991
vt 0.625000 0.655991
vt 0.526515 0.655991
vt 0.526515 0.646978
vt 0.625000 0.646978
vt 0.375000 0.655991
vt 0.286716 0.655991
vt 0.286716 0.646978
vt 0.375000 0.646978
vt 0.375000 0.646978
vt 0.375000 0.646978
vt 0.375000 0.646978
vt 0.375000 0.655991
vt 0.375000 0.103022
vt 0.375000 0.094009
vt 0.375000 0.094009
vt 0.375000 0.103022
vt 0.375000 0.094009
vt 0.375000 0.103022
vt 0.375000 0.646978
vt 0.000000 0.000000
vt 0.000000 0.000000
vt 0.000000 0.000000
vt 0.000000 0.000000
vt 0.526515 0.679613
vt 0.526515 0.668095
vt 0.625000 0.668095
vt 0.125000 0.736168
vt 0.125000 0.716285
vt 0.218051 0.716285
vt 0.375000 0.103022
vt 0.375000 0.103022
vt 0.000000 0.000000
vt 0.000000 0.000000
vt 0.713284 0.736168
vt 0.473485 0.655991
vt 0.473485 0.646978
vt 0.473485 0.081905
vt 0.473485 0.070387
vt 0.526515 0.013832
vt 0.473485 0.013832
vt 0.473485 0.000000
vt 0.526515 0.000000
vt 0.625000 0.013832
vt 0.625000 0.000000
vt 0.473485 0.033715
vt 0.473485 0.750000
vt 0.286716 0.679613
vt 0.375000 0.679613
vt 0.526515 0.750000
vt 0.473485 0.750000
vt 0.218051 0.646978
vt 0.781949 0.679613
vt 0.875000 0.679613
vt 0.375000 0.070387
vt 0.375000 0.033715
vt 0.375000 0.081905
vt 0.473485 0.679613
vt 0.526515 1.000000
vt 0.473485 1.000000
vt 0.473485 0.906949
vt 0.526515 0.906949
vt 0.473485 0.906949
vt 0.526515 0.906949
vt 0.473485 0.838284
vt 0.473485 0.838284
vt 0.473485 0.000000
vt 0.526515 0.000000
vt 0.526515 0.838284
vt 0.526515 0.838284
vt 0.473485 1.000000
vt 0.375000 0.013832
vt 0.625000 0.668095
vt 0.875000 0.531671
vt 0.625000 0.531671
vt 0.125000 0.646978
vt 0.286716 0.655991
vt 0.713284 0.655991
vt 0.713284 0.646978
vt 0.375000 0.218329
vt 0.125000 0.668095
vt 0.125000 0.655991
vt 0.713284 0.750000
vt 0.125000 0.750000
vt 0.473485 0.838284
vt 0.625000 0.838284
vt 0.526515 0.838284
vt 0.713284 0.668095
vt 0.000000 0.000000
vt 0.000000 0.000000
vt 0.125000 0.646978
vt 0.218051 0.646978
vt 0.375000 0.838284
vt 0.375000 0.000000
vt 0.473485 0.906949
vt 0.473485 0.094009
vt 0.375000 1.000000
vt 0.375000 0.906949
vt 0.473485 0.668095
vt 0.473485 0.103022
vt 0.000000 0.000000
vt 0.000000 0.000000
vt 0.713284 0.668095
vt 0.000000 0.000000
vt 0.000000 0.000000
vt 0.000000 0.000000
vt 0.875000 0.750000
vt 0.875000 0.500000
vt 0.000000 0.000000
vt 0.000000 0.000000
vt 0.218051 0.679613
vt 0.125000 0.679613
vt 0.286716 0.646978
vt 0.000000 0.000000
vt 0.125000 0.750000
vt 0.125000 0.500000
vn -1.0000 -0.0000 0.0000
vn 0.0000 -1.0000 0.0000
vn 0.0000 1.0000 0.0000
vn 1.0000 0.0000 0.0000
vn 0.0000 -0.0000 1.0000
vn 0.0000 0.0000 -1.0000
s 1
f 66/1/1 72/2/1 191/3/1 63/4/1
f 7/5/2 194/6/2 4/7/2 8/8/2
f 9/9/2 58/10/2 10/11/2 11/12/2
f 12/13/3 165/14/3 13/15/3 14/16/3
f 8/8/4 4/7/4 6/17/4 15/18/4
f 16/19/4 19/20/4 17/21/4 18/22/4
f 19/20/2 60/23/2 20/24/2 17/21/2
f 21/25/3 16/19/3 18/22/3 22/26/3
f 23/27/3 29/28/3 24/29/3 25/30/3
f 26/31/2 30/32/2 27/33/2 28/34/2
f 29/28/4 26/31/4 28/34/4 24/29/4
f 25/35/1 27/36/1 30/37/1 23/38/1
f 31/39/1 48/40/1 32/41/1 33/42/1
f 34/43/5 171/44/5 35/45/5 36/46/5
f 15/18/3 6/17/3 5/47/3 37/48/3
f 169/49/4 132/50/4 91/51/4 54/52/4
f 41/53/6 38/54/6 40/55/6 42/56/6
f 43/57/2 3/58/2 44/59/2 45/60/2
f 46/61/1 41/53/1 42/56/1 13/15/1
f 47/62/1 125/63/1 48/40/1 31/39/1
f 49/64/3 164/65/3 50/66/3 51/67/3
f 51/67/6 50/66/6 52/68/6 47/69/6
f 53/70/4 122/71/4 54/52/4 39/72/4
f 49/73/1 51/74/1 47/62/1 31/39/1
f 55/75/4 88/76/4 56/77/4 57/78/4
f 46/61/3 61/79/3 38/54/3 41/53/3
f 58/10/2 166/80/2 59/81/2 10/11/2
f 22/82/1 20/83/1 60/84/1 21/85/1
f 61/79/3 122/71/3 53/70/3 38/54/3
f 62/86/1 87/87/1 63/4/1 22/82/1
f 54/52/4 91/51/4 64/88/4 39/72/4
f 65/89/6 55/75/6 57/78/6 66/1/6
f 67/90/6 77/91/6 68/92/6 69/93/6
f 70/94/5 75/95/5 71/96/5 72/97/5
f 67/90/3 69/93/3 66/1/3 57/78/3
f 3/58/2 2/98/2 73/99/2 44/59/2
f 74/100/2 76/101/2 75/95/2 70/94/2
f 76/101/6 74/102/6 68/92/6 77/91/6
f 74/102/1 70/103/1 72/2/1 68/92/1
f 75/95/4 76/101/4 77/91/4 71/96/4
f 78/104/2 193/105/2 79/106/2 80/107/2
f 81/108/6 86/109/6 72/97/6 71/96/6
f 78/104/4 80/107/4 82/110/4 17/21/4
f 11/12/2 10/11/2 83/111/2 84/112/2
f 14/16/3 13/15/3 42/56/3 33/113/3
f 12/114/5 129/115/5 151/116/5 165/117/5
f 85/118/1 93/119/1 79/120/1 86/121/1
f 96/122/1 186/123/1 187/124/1 94/125/1
f 87/126/3 88/76/3 55/75/3 65/127/3
f 56/77/4 82/110/4 71/96/4 57/78/4
f 37/48/1 5/47/1 194/128/1 7/129/1
f 63/4/1 191/3/1 20/83/1 22/82/1
f 89/130/2 93/131/2 85/132/2 90/133/2
f 91/51/4 103/134/4 92/135/4 64/88/4
f 93/131/5 89/130/5 80/107/5 79/106/5
f 89/130/4 90/133/4 81/108/4 80/107/4
f 94/136/3 160/137/3 95/138/3 96/139/3
f 97/140/5 158/141/5 98/142/5 99/143/5
f 100/144/4 123/145/4 101/146/4 102/147/4
f 103/134/4 11/12/4 84/112/4 92/135/4
f 104/148/2 137/149/2 105/150/2 106/151/2
f 107/152/4 120/153/4 108/154/4 106/151/4
f 104/148/4 106/151/4 108/154/4 109/155/4
f 110/156/1 97/157/1 99/158/1 111/159/1
f 111/159/1 99/158/1 112/160/1 113/161/1
f 109/155/4 108/154/4 114/162/4 45/60/4
f 108/163/6 121/164/6 115/165/6 114/166/6
f 36/46/4 131/167/4 188/168/4 174/169/4
f 59/81/2 156/170/2 117/171/2 118/172/2
f 119/173/1 190/174/1 110/156/1 111/159/1
f 120/175/3 177/176/3 121/164/3 108/163/3
f 122/71/5 61/79/5 116/177/5 54/52/5
f 10/11/2 59/81/2 118/172/2 83/111/2
f 123/145/4 143/178/4 124/179/4 101/146/4
f 125/63/1 141/180/1 126/181/1 48/40/1
f 127/182/1 140/183/1 128/184/1 129/185/1
f 14/186/1 127/182/1 129/185/1 12/187/1
f 48/40/1 126/181/1 130/188/1 32/41/1
f 39/72/4 64/88/4 131/167/4 36/46/4
f 132/50/4 133/189/4 103/134/4 91/51/4
f 84/112/2 83/111/2 1/190/2 136/191/2
f 133/189/5 134/192/5 135/193/5
f 137/149/2 158/141/2 138/194/2 105/150/2
f 33/113/3 42/56/3 139/195/3 31/196/3
f 126/181/1 142/197/1 117/198/1 130/188/1
f 33/42/1 32/41/1 127/182/1 14/186/1
f 174/169/4 188/168/4 123/145/4 100/144/4
f 141/180/1 182/199/1 142/197/1 126/181/1
f 143/178/4 45/60/4 114/162/4 124/179/4
f 64/88/4 92/135/4 144/200/4 131/167/4
f 145/201/5 152/202/5 146/203/5 147/204/5
f 148/205/1 180/206/1 147/204/1 146/203/1
f 92/135/4 84/112/4 136/191/4 144/200/4
f 149/207/5 135/193/5 150/208/5
f 151/116/5 145/201/5 147/204/5
f 129/185/5 152/209/5 145/210/5
f 153/211/5 147/204/5 154/212/5
f 128/213/5 146/203/5 152/202/5
f 47/69/3 52/68/3 160/137/3 94/136/3
f 130/188/1 117/198/1 156/214/1 140/183/1
f 172/215/4 34/43/4 36/46/4 174/169/4
f 193/105/5 78/104/5 17/21/5 20/24/5
f 62/216/3 192/217/3 88/76/3 87/126/3
f 158/141/2 97/140/2 110/218/2 138/194/2
f 158/141/5 137/149/5 159/219/5 98/142/5
f 160/137/3 175/220/3 161/221/3 95/138/3
f 192/217/5 62/216/5 22/26/5 18/22/5
f 86/121/1 79/120/1 191/3/1 72/2/1
f 79/120/1 193/222/1 20/83/1 191/3/1
f 2/98/2 182/223/2 112/224/2 73/99/2
f 90/133/6 85/132/6 86/109/6 81/108/6
f 94/125/1 187/124/1 125/63/1 47/62/1
f 165/14/3 168/225/3 116/177/3 13/15/3
f 166/80/2 189/226/2 156/170/2 59/81/2
f 167/227/2 148/205/2 146/203/2 150/208/2
f 168/228/5 153/211/5 132/50/5 169/49/5
f 168/225/3 169/49/3 54/52/3 116/177/3
f 170/229/4 167/227/4 150/208/4 154/212/4
f 171/44/3 34/43/3 172/215/3 173/230/3
f 99/143/5 98/142/5 73/99/5 112/224/5
f 175/220/3 100/144/3 102/147/3 161/221/3
f 137/149/5 104/148/5 109/155/5 159/219/5
f 107/231/6 176/232/6 177/176/6 120/175/6
f 190/233/2 155/234/2 138/194/2 110/218/2
f 149/207/5 58/235/5 9/9/5 133/189/5
f 154/212/5 150/208/5 135/193/5 134/192/5
f 140/183/1 156/214/1 189/236/1 128/184/1
f 180/206/3 170/229/3 154/212/3 147/204/3
f 132/50/5 154/212/5 134/192/5
f 179/237/5 150/208/5 146/203/5
f 187/124/1 183/238/1 141/180/1 125/63/1
f 180/206/5 148/205/5 167/227/5 170/229/5
f 128/213/5 189/239/5 166/240/5 179/237/5
f 188/168/4 184/241/4 143/178/4 123/145/4
f 131/167/4 144/200/4 184/241/4 188/168/4
f 18/22/4 17/21/4 82/110/4 56/77/4
f 186/123/1 185/242/1 183/238/1 187/124/1
f 176/232/6 155/243/6 157/244/6 177/176/6
f 162/245/3 174/169/3 100/144/3 175/220/3
f 185/242/1 113/161/1 112/160/1 183/238/1
f 144/200/4 136/191/4 43/57/4 184/241/4
f 184/241/4 43/57/4 45/60/4 143/178/4
f 183/238/1 112/160/1 182/199/1 141/180/1
f 179/237/5 166/240/5 58/235/5 149/207/5
f 157/244/3 119/246/3 111/247/3 178/248/3
f 7/249/5 8/8/5 15/18/5 37/250/5
f 178/248/6 111/247/6 113/251/6 181/252/6
f 164/65/3 171/44/3 173/230/3 50/66/3
f 52/68/3 162/245/3 175/220/3 160/137/3
f 163/253/2 142/254/2 182/223/2 2/98/2
f 165/117/5 151/116/5 153/211/5 168/228/5
f 171/44/5 164/65/5 139/195/5 35/45/5
f 133/189/4 9/9/4 11/12/4 103/134/4
f 77/91/4 67/90/4 57/78/4 71/96/4
f 69/93/1 68/92/1 72/2/1 66/1/1
f 121/164/6 178/248/6 181/252/6 115/165/6
f 177/176/3 157/244/3 178/248/3 121/164/3
f 176/255/2 107/152/2 106/151/2 105/150/2
f 159/219/5 109/155/5 45/60/5 44/59/5
f 173/230/6 172/215/6 174/169/6 162/245/6
f 164/65/5 49/64/5 31/196/5 139/195/5
f 83/111/2 118/172/2 163/253/2 1/190/2
f 40/55/3 39/72/3 36/46/3 35/45/3
f 118/172/2 117/171/2 142/254/2 163/253/2
f 50/66/6 173/230/6 162/245/6 52/68/6
f 42/56/3 40/55/3 35/45/3 139/195/3
f 98/142/5 159/219/5 44/59/5 73/99/5
f 155/243/6 190/256/6 119/246/6 157/244/6
f 155/234/2 176/255/2 105/150/2 138/194/2
f 32/41/1 130/188/1 140/183/1 127/182/1
f 61/79/5 46/61/5 13/15/5 116/177/5
f 88/76/4 192/217/4 18/22/4 56/77/4
f 136/191/2 1/190/2 3/58/2 43/57/2
f 87/87/1 65/89/1 66/1/1 63/4/1
f 80/107/4 81/108/4 71/96/4 82/110/4
f 38/54/6 53/70/6 39/72/6 40/55/6
f 4/7/6 194/257/6 5/258/6 6/17/6
f 133/189/5 132/50/5 134/192/5
f 149/207/5 133/189/5 135/193/5
f 151/116/5 129/115/5 145/201/5
f 129/185/5 128/184/5 152/209/5
f 153/211/5 151/116/5 147/204/5
f 128/213/5 179/237/5 146/203/5
f 132/50/5 153/211/5 154/212/5
f 179/237/5 149/207/5 150/208/5
f 1/190/2 163/253/2 2/98/2 3/58/2
